Radley-Italic.ufo
<glyph name="numbersign" format="1">
  <advance width="1167"/>
  <unicode hex="0023"/>
  <outline>
    <contour>
      <point x="775" y="690" type="line"/>
      <point x="463" y="690" type="line"/>
      <point x="364" y="483" type="line"/>
      <point x="678" y="483" type="line"/>
    </contour>
    <contour>
      <point x="638" y="407" type="line"/>
      <point x="328" y="406" type="line"/>
      <point x="238" y="226"/>
      <point x="170" y="38"/>
      <point x="91" y="-145" type="curve" smooth="yes"/>
      <point x="72" y="-189"/>
      <point x="49" y="-222"/>
      <point x="6" y="-222" type="curve" smooth="yes"/>
      <point x="-12" y="-222"/>
      <point x="-26" y="-199"/>
      <point x="-26" y="-167" type="curve" smooth="yes"/>
      <point x="-26" y="-124"/>
      <point x="199" y="309"/>
      <point x="236" y="383" type="curve" smooth="yes"/>
      <point x="248" y="407" type="line"/>
      <point x="221" y="407" type="line" smooth="yes"/>
      <point x="200" y="407"/>
      <point x="173" y="404"/>
      <point x="145" y="404" type="curve" smooth="yes"/>
      <point x="92" y="404"/>
      <point x="63" y="414"/>
      <point x="63" y="434" type="curve" smooth="yes"/>
      <point x="63" y="473"/>
      <point x="118" y="487"/>
      <point x="188" y="487" type="curve" smooth="yes"/>
      <point x="222" y="487"/>
      <point x="256" y="484"/>
      <point x="275" y="484" type="curve" smooth="yes"/>
      <point x="286" y="484" type="line"/>
      <point x="387" y="691" type="line"/>
      <point x="360" y="691" type="line" smooth="yes"/>
      <point x="337" y="691"/>
      <point x="303" y="687"/>
      <point x="269" y="687" type="curve" smooth="yes"/>
      <point x="211" y="687"/>
      <point x="179" y="698"/>
      <point x="179" y="719" type="curve" smooth="yes"/>
      <point x="179" y="756"/>
      <point x="238" y="772"/>
      <point x="313" y="772" type="curve" smooth="yes"/>
      <point x="355" y="772"/>
      <point x="394" y="768"/>
      <point x="415" y="768" type="curve" smooth="yes"/>
      <point x="426" y="768" type="line"/>
      <point x="521" y="939"/>
      <point x="610" y="1128"/>
      <point x="671" y="1310" type="curve" smooth="yes"/>
      <point x="679" y="1335"/>
      <point x="724" y="1345"/>
      <point x="751" y="1345" type="curve" smooth="yes"/>
      <point x="789" y="1345"/>
      <point x="789" y="1339"/>
      <point x="789" y="1317" type="curve" smooth="yes"/>
      <point x="789" y="1262"/>
      <point x="558" y="871"/>
      <point x="518" y="793" type="curve" smooth="yes"/>
      <point x="505" y="768" type="line"/>
      <point x="813" y="768" type="line"/>
      <point x="893" y="928"/>
      <point x="968" y="1102"/>
      <point x="1029" y="1269" type="curve" smooth="yes"/>
      <point x="1049" y="1325"/>
      <point x="1064" y="1345"/>
      <point x="1122" y="1345" type="curve" smooth="yes"/>
      <point x="1160" y="1345"/>
      <point x="1168" y="1334"/>
      <point x="1168" y="1310" type="curve" smooth="yes"/>
      <point x="1168" y="1257"/>
      <point x="947" y="868"/>
      <point x="908" y="794" type="curve" smooth="yes"/>
      <point x="895" y="769" type="line"/>
      <point x="923" y="769" type="line" smooth="yes"/>
      <point x="941" y="769"/>
      <point x="970" y="771"/>
      <point x="1002" y="771" type="curve" smooth="yes"/>
      <point x="1063" y="771"/>
      <point x="1100" y="759"/>
      <point x="1100" y="743" type="curve" smooth="yes"/>
      <point x="1100" y="702"/>
      <point x="1043" y="687"/>
      <point x="973" y="687" type="curve" smooth="yes"/>
      <point x="931" y="687"/>
      <point x="889" y="692"/>
      <point x="865" y="692" type="curve" smooth="yes"/>
      <point x="854" y="692" type="line"/>
      <point x="753" y="485" type="line"/>
      <point x="780" y="485" type="line" smooth="yes"/>
      <point x="799" y="485"/>
      <point x="833" y="488"/>
      <point x="869" y="488" type="curve" smooth="yes"/>
      <point x="937" y="488"/>
      <point x="983" y="474"/>
      <point x="983" y="453" type="curve" smooth="yes"/>
      <point x="983" y="416"/>
      <point x="928" y="402"/>
      <point x="850" y="402" type="curve" smooth="yes"/>
      <point x="800" y="402"/>
      <point x="750" y="408"/>
      <point x="727" y="408" type="curve" smooth="yes"/>
      <point x="716" y="408" type="line"/>
      <point x="627" y="230"/>
      <point x="559" y="42"/>
      <point x="481" y="-141" type="curve" smooth="yes"/>
      <point x="461" y="-188"/>
      <point x="432" y="-221"/>
      <point x="386" y="-221" type="curve" smooth="yes"/>
      <point x="368" y="-221"/>
      <point x="354" y="-198"/>
      <point x="354" y="-166" type="curve" smooth="yes"/>
      <point x="354" y="-123"/>
      <point x="591" y="311"/>
      <point x="626" y="383" type="curve" smooth="yes"/>
    </contour>
  </outline>
</glyph>
<glyph name="dollar" format="1">
  <advance width="979"/>
  <unicode hex="0024"/>
  <outline>
    <contour>
      <point x="333" y="959" type="curve" smooth="yes"/>
      <point x="333" y="907"/>
      <point x="361" y="865"/>
      <point x="413" y="826" type="curve" smooth="yes"/>
      <point x="510" y="754" type="line"/>
      <point x="587" y="1154" type="line"/>
      <point x="566" y="1152" type="line" smooth="yes"/>
      <point x="454" y="1141"/>
      <point x="333" y="1076"/>
    </contour>
    <contour>
      <point x="502" y="503" type="line"/>
      <point x="497" y="479" type="line" smooth="yes"/>
      <point x="471" y="353"/>
      <point x="446" y="205"/>
      <point x="412" y="34" type="curve"/>
      <point x="431" y="34" type="line" smooth="yes"/>
      <point x="551" y="34"/>
      <point x="689" y="92"/>
      <point x="689" y="257" type="curve" smooth="yes"/>
      <point x="689" y="348"/>
      <point x="633" y="413"/>
      <point x="521" y="490" type="curve" smooth="yes"/>
    </contour>
    <contour>
      <point x="550" y="735" type="line"/>
      <point x="661" y="654" type="line" smooth="yes"/>
      <point x="819" y="538"/>
      <point x="860" y="469"/>
      <point x="860" y="355" type="curve" smooth="yes"/>
      <point x="860" y="102"/>
      <point x="622" y="0"/>
      <point x="405" y="0" type="curve"/>
      <point x="375" y="-139" type="line" smooth="yes"/>
      <point x="368" y="-171"/>
      <point x="354" y="-186"/>
      <point x="341" y="-186" type="curve" smooth="yes"/>
      <point x="328" y="-186"/>
      <point x="318" y="-173"/>
      <point x="318" y="-150" type="curve" smooth="yes"/>
      <point x="318" y="-144"/>
      <point x="318" y="-138"/>
      <point x="320" y="-131" type="curve" smooth="yes"/>
      <point x="348" y="5" type="line"/>
      <point x="216" y="12"/>
      <point x="92" y="48"/>
      <point x="7" y="103" type="curve"/>
      <point x="82" y="368" type="line"/>
      <point x="87" y="369"/>
      <point x="89" y="369"/>
      <point x="90" y="369" type="curve" smooth="yes"/>
      <point x="94" y="365"/>
      <point x="100" y="348"/>
      <point x="100" y="322" type="curve" smooth="yes"/>
      <point x="100" y="310"/>
      <point x="98" y="298"/>
      <point x="98" y="284" type="curve" smooth="yes"/>
      <point x="98" y="149"/>
      <point x="225" y="67"/>
      <point x="361" y="41" type="curve"/>
      <point x="455" y="526" type="line"/>
      <point x="333" y="611" type="line" smooth="yes"/>
      <point x="236" y="678"/>
      <point x="188" y="750"/>
      <point x="188" y="838" type="curve" smooth="yes"/>
      <point x="188" y="1086"/>
      <point x="454" y="1199"/>
      <point x="596" y="1200" type="curve"/>
      <point x="627" y="1354" type="line" smooth="yes"/>
      <point x="633" y="1382"/>
      <point x="645" y="1393"/>
      <point x="656" y="1393" type="curve" smooth="yes"/>
      <point x="667" y="1393"/>
      <point x="677" y="1381"/>
      <point x="677" y="1360" type="curve" smooth="yes"/>
      <point x="677" y="1356"/>
      <point x="677" y="1352"/>
      <point x="676" y="1347" type="curve" smooth="yes"/>
      <point x="647" y="1201" type="line"/>
      <point x="749" y="1196"/>
      <point x="843" y="1177"/>
      <point x="917" y="1144" type="curve"/>
      <point x="895" y="911" type="line"/>
      <point x="888" y="910"/>
      <point x="886" y="910"/>
      <point x="884" y="910" type="curve" smooth="yes"/>
      <point x="879" y="911"/>
      <point x="862" y="944"/>
      <point x="862" y="978" type="curve" smooth="yes"/>
      <point x="862" y="1102"/>
      <point x="752" y="1139"/>
      <point x="638" y="1155" type="curve"/>
    </contour>
  </outline>
</glyph>
<glyph name="ampersand" format="1">
  <advance width="1633"/>
  <unicode hex="0026"/>
  <outline>
    <contour>
      <point x="737" y="0" type="curve" smooth="yes"/>
      <point x="456" y="0"/>
      <point x="98" y="179"/>
      <point x="98" y="498" type="curve" smooth="yes"/>
      <point x="98" y="649"/>
      <point x="168" y="759"/>
      <point x="290" y="841" type="curve"/>
      <point x="266" y="892"/>
      <point x="259" y="945"/>
      <point x="259" y="1001" type="curve" smooth="yes"/>
      <point x="259" y="1168"/>
      <point x="419" y="1301"/>
      <point x="580" y="1301" type="curve" smooth="yes"/>
      <point x="673" y="1301"/>
      <point x="795" y="1246"/>
      <point x="795" y="1138" type="curve" smooth="yes"/>
      <point x="795" y="1092"/>
      <point x="750" y="1044"/>
      <point x="703" y="1044" type="curve" smooth="yes"/>
      <point x="622" y="1044"/>
      <point x="511" y="1127"/>
      <point x="417" y="1127" type="curve" smooth="yes"/>
      <point x="341" y="1127"/>
      <point x="328" y="1046"/>
      <point x="328" y="986" type="curve" smooth="yes"/>
      <point x="328" y="944"/>
      <point x="335" y="905"/>
      <point x="351" y="866" type="curve"/>
      <point x="380" y="875"/>
      <point x="409" y="886"/>
      <point x="440" y="886" type="curve" smooth="yes"/>
      <point x="494" y="886"/>
      <point x="539" y="856"/>
      <point x="539" y="798" type="curve" smooth="yes"/>
      <point x="539" y="744"/>
      <point x="496" y="699"/>
      <point x="442" y="699" type="curve" smooth="yes"/>
      <point x="384" y="699"/>
      <point x="349" y="732"/>
      <point x="321" y="779" type="curve"/>
      <point x="230" y="740"/>
      <point x="175" y="641"/>
      <point x="175" y="544" type="curve" smooth="yes"/>
      <point x="175" y="242"/>
      <point x="515" y="163"/>
      <point x="757" y="163" type="curve" smooth="yes"/>
      <point x="983" y="163"/>
      <point x="1325" y="242"/>
      <point x="1325" y="525" type="curve" smooth="yes"/>
      <point x="1325" y="748"/>
      <point x="1175" y="868"/>
      <point x="960" y="868" type="curve" smooth="yes"/>
      <point x="839" y="868"/>
      <point x="694" y="805"/>
      <point x="694" y="665" type="curve" smooth="yes"/>
      <point x="694" y="573"/>
      <point x="772" y="484"/>
      <point x="867" y="484" type="curve" smooth="yes"/>
      <point x="959" y="484"/>
      <point x="925" y="560"/>
      <point x="925" y="615" type="curve" smooth="yes"/>
      <point x="925" y="665"/>
      <point x="954" y="699"/>
      <point x="1005" y="699" type="curve" smooth="yes"/>
      <point x="1060" y="699"/>
      <point x="1102" y="653"/>
      <point x="1102" y="599" type="curve" smooth="yes"/>
      <point x="1102" y="480"/>
      <point x="995" y="412"/>
      <point x="885" y="412" type="curve" smooth="yes"/>
      <point x="745" y="412"/>
      <point x="623" y="505"/>
      <point x="623" y="652" type="curve" smooth="yes"/>
      <point x="623" y="880"/>
      <point x="823" y="1009"/>
      <point x="1034" y="1009" type="curve" smooth="yes"/>
      <point x="1184" y="1009"/>
      <point x="1324" y="942"/>
      <point x="1474" y="942" type="curve" smooth="yes"/>
      <point x="1546" y="942"/>
      <point x="1611" y="991"/>
      <point x="1611" y="1067" type="curve" smooth="yes"/>
      <point x="1611" y="1110"/>
      <point x="1580" y="1181"/>
      <point x="1529" y="1181" type="curve" smooth="yes"/>
      <point x="1480" y="1181"/>
      <point x="1465" y="1094"/>
      <point x="1394" y="1094" type="curve" smooth="yes"/>
      <point x="1344" y="1094"/>
      <point x="1298" y="1122"/>
      <point x="1298" y="1177" type="curve" smooth="yes"/>
      <point x="1298" y="1241"/>
      <point x="1356" y="1272"/>
      <point x="1414" y="1272" type="curve" smooth="yes"/>
      <point x="1557" y="1272"/>
      <point x="1685" y="1211"/>
      <point x="1685" y="1051" type="curve" smooth="yes"/>
      <point x="1685" y="912"/>
      <point x="1571" y="815"/>
      <point x="1436" y="815" type="curve" smooth="yes"/>
      <point x="1389" y="815"/>
      <point x="1343" y="823"/>
      <point x="1296" y="826" type="curve"/>
      <point x="1357" y="734"/>
      <point x="1396" y="656"/>
      <point x="1396" y="543" type="curve" smooth="yes"/>
      <point x="1396" y="175"/>
      <point x="1068" y="0"/>
    </contour>
  </outline>
</glyph>
<glyph name="comma" format="1">
  <advance width="590"/>
  <unicode hex="002C"/>
  <outline>
    <contour>
      <point x="151" y="-212" type="line"/>
      <point x="80" y="-116" type="line"/>
      <point x="101" y="-101" type="line" smooth="yes"/>
      <point x="176" y="-48"/>
      <point x="227" y="-31"/>
      <point x="227" y="44" type="curve" smooth="yes"/>
      <point x="227" y="85"/>
      <point x="174" y="166"/>
      <point x="174" y="209" type="curve" smooth="yes"/>
      <point x="174" y="254"/>
      <point x="219" y="297"/>
      <point x="280" y="297" type="curve" smooth="yes"/>
      <point x="363" y="297"/>
      <point x="424" y="226"/>
      <point x="424" y="124" type="curve" smooth="yes"/>
      <point x="424" y="-5"/>
      <point x="297" y="-130"/>
      <point x="181" y="-195" type="curve" smooth="yes"/>
    </contour>
  </outline>
</glyph>
<glyph name="hyphen" format="1">
  <advance width="726"/>
  <unicode hex="002D"/>
  <outline>
    <contour>
      <point x="126" y="360" type="line"/>
      <point x="133" y="401"/>
      <point x="150" y="475"/>
      <point x="161" y="475" type="curve" smooth="yes"/>
      <point x="585" y="475" type="line"/>
      <point x="577" y="435"/>
      <point x="561" y="360"/>
      <point x="548" y="360" type="curve" smooth="yes"/>
    </contour>
  </outline>
</glyph>
<glyph name="period" format="1">
  <advance width="533"/>
  <unicode hex="002E"/>
  <outline>
    <contour>
      <point x="112" y="130" type="curve" smooth="yes"/>
      <point x="112" y="221"/>
      <point x="176" y="264"/>
      <point x="240" y="264" type="curve" smooth="yes"/>
      <point x="306" y="264"/>
      <point x="369" y="221"/>
      <point x="369" y="130" type="curve" smooth="yes"/>
      <point x="369" y="40"/>
      <point x="306" y="-3"/>
      <point x="240" y="-3" type="curve" smooth="yes"/>
      <point x="176" y="-3"/>
      <point x="112" y="40"/>
    </contour>
  </outline>
</glyph>
<glyph name="two" format="1">
  <advance width="961"/>
  <unicode hex="0032"/>
  <outline>
    <contour>
      <point x="643" y="-74" type="curve"/>
      <point x="598" y="-74" type="line" smooth="yes"/>
      <point x="582" y="-74"/>
      <point x="605" y="0"/>
      <point x="557" y="0" type="curve" smooth="yes"/>
      <point x="42" y="0" type="line" smooth="yes"/>
      <point x="-9" y="0"/>
      <point x="-11" y="14"/>
      <point x="-11" y="17" type="curve" smooth="yes"/>
      <point x="-11" y="32"/>
      <point x="18" y="67"/>
      <point x="54" y="97" type="curve"/>
      <point x="408" y="360" type="line"/>
      <point x="443" y="389"/>
      <point x="646" y="514"/>
      <point x="646" y="651" type="curve" smooth="yes"/>
      <point x="646" y="749"/>
      <point x="569" y="783"/>
      <point x="505" y="783" type="curve" smooth="yes"/>
      <point x="404" y="783"/>
      <point x="279" y="707"/>
      <point x="211" y="642" type="curve" smooth="yes"/>
      <point x="198" y="629"/>
      <point x="187" y="624"/>
      <point x="176" y="624" type="curve" smooth="yes"/>
      <point x="156" y="624"/>
      <point x="143" y="644"/>
      <point x="143" y="669" type="curve" smooth="yes"/>
      <point x="143" y="689"/>
      <point x="151" y="712"/>
      <point x="172" y="729" type="curve" smooth="yes"/>
      <point x="276" y="815"/>
      <point x="413" y="892"/>
      <point x="557" y="892" type="curve" smooth="yes"/>
      <point x="706" y="892"/>
      <point x="826" y="832"/>
      <point x="826" y="673" type="curve" smooth="yes"/>
      <point x="826" y="475"/>
      <point x="580" y="350"/>
      <point x="426" y="235" type="curve"/>
      <point x="222" y="119" type="line"/>
      <point x="601" y="119" type="line" smooth="yes"/>
      <point x="709" y="119"/>
      <point x="731" y="243"/>
      <point x="764" y="243" type="curve" smooth="yes"/>
      <point x="819" y="243" type="line"/>
      <point x="819" y="231"/>
      <point x="796" y="209"/>
    </contour>
  </outline>
</glyph>
<glyph name="five" format="1">
  <advance width="824"/>
  <unicode hex="0035"/>
  <outline>
    <contour>
      <point x="211" y="333" type="line"/>
      <point x="203" y="333"/>
      <point x="201" y="332"/>
      <point x="196" y="332" type="curve" smooth="yes"/>
      <point x="168" y="332"/>
      <point x="151" y="334"/>
      <point x="151" y="355" type="curve" smooth="yes"/>
      <point x="151" y="360"/>
      <point x="152" y="367"/>
      <point x="154" y="375" type="curve" smooth="yes"/>
      <point x="292" y="861" type="line" smooth="yes"/>
      <point x="300" y="889"/>
      <point x="306" y="891"/>
      <point x="337" y="891" type="curve" smooth="yes"/>
      <point x="383" y="891"/>
      <point x="473" y="872"/>
      <point x="640" y="872" type="curve" smooth="yes"/>
      <point x="705" y="872"/>
      <point x="740" y="941"/>
      <point x="740" y="941" type="curve"/>
      <point x="792" y="941" type="line"/>
      <point x="754" y="783" type="line" smooth="yes"/>
      <point x="739" y="721"/>
      <point x="703" y="720"/>
      <point x="604" y="720" type="curve" smooth="yes"/>
      <point x="344" y="720" type="line" smooth="yes"/>
      <point x="327" y="720"/>
      <point x="319" y="706"/>
      <point x="314" y="689" type="curve" smooth="yes"/>
      <point x="296" y="622"/>
      <point x="279" y="573"/>
      <point x="261" y="504" type="curve" smooth="yes"/>
      <point x="255" y="481" type="line"/>
      <point x="305" y="481" type="line" smooth="yes"/>
      <point x="552" y="481"/>
      <point x="653" y="352"/>
      <point x="653" y="203" type="curve" smooth="yes"/>
      <point x="653" y="19"/>
      <point x="445" y="-206"/>
      <point x="164" y="-206" type="curve" smooth="yes"/>
      <point x="23" y="-206"/>
      <point x="-17" y="-133"/>
      <point x="-17" y="-81" type="curve" smooth="yes"/>
      <point x="-17" y="-40"/>
      <point x="14" y="-5"/>
      <point x="60" y="-5" type="curve" smooth="yes"/>
      <point x="102" y="-5"/>
      <point x="144" y="-25"/>
      <point x="219" y="-111" type="curve"/>
      <point x="219" y="-114"/>
      <point x="228" y="-114"/>
      <point x="232" y="-114" type="curve" smooth="yes"/>
      <point x="413" y="-114"/>
      <point x="517" y="11"/>
      <point x="517" y="126" type="curve" smooth="yes"/>
      <point x="517" y="235"/>
      <point x="439" y="337"/>
      <point x="267" y="337" type="curve" smooth="yes"/>
      <point x="252" y="337"/>
      <point x="237" y="336"/>
      <point x="222" y="335" type="curve"/>
    </contour>
  </outline>
</glyph>
<glyph name="seven" format="1">
  <advance width="840"/>
  <unicode hex="0037"/>
  <outline>
    <contour>
      <point x="862" y="844" type="line"/>
      <point x="325" y="-177" type="line"/>
      <point x="296" y="-229"/>
      <point x="258" y="-248"/>
      <point x="224" y="-248" type="curve" smooth="yes"/>
      <point x="176" y="-248"/>
      <point x="135" y="-211"/>
      <point x="135" y="-155" type="curve" smooth="yes"/>
      <point x="135" y="-131"/>
      <point x="145" y="-97"/>
      <point x="169" y="-61" type="curve" smooth="yes"/>
      <point x="699" y="725" type="line"/>
      <point x="334" y="725" type="line" smooth="yes"/>
      <point x="235" y="725"/>
      <point x="181" y="593"/>
      <point x="169" y="593" type="curve" smooth="yes"/>
      <point x="94" y="593" type="line"/>
      <point x="267" y="950" type="line"/>
      <point x="313" y="951" type="line"/>
      <point x="313" y="890"/>
      <point x="313" y="872"/>
      <point x="349" y="872" type="curve" smooth="yes"/>
      <point x="845" y="872" type="line"/>
    </contour>
  </outline>
</glyph>
<glyph name="A" format="1">
  <advance width="1278"/>
  <unicode hex="0041"/>
  <outline>
    <contour>
      <point x="956" y="1264" type="move" name="top"/>
    </contour>
    <contour>
      <point x="550" y="1264" type="move" name="top"/>
    </contour>
    <contour>
      <point x="550" y="0" type="move" name="bot"/>
    </contour>
    <contour>
      <point x="857" y="470" type="line"/>
      <point x="866" y="1037" type="line"/>
      <point x="503" y="470" type="line"/>
    </contour>
    <contour>
      <point x="296" y="143" type="curve" smooth="yes"/>
      <point x="296" y="76"/>
      <point x="393" y="74"/>
      <point x="440" y="74" type="curve"/>
      <point x="449" y="70"/>
      <point x="449" y="36"/>
      <point x="449" y="30" type="curve" smooth="yes"/>
      <point x="449" y="27"/>
      <point x="448" y="0"/>
      <point x="440" y="0" type="curve" smooth="yes"/>
      <point x="-67" y="0" type="line" smooth="yes"/>
      <point x="-75" y="0"/>
      <point x="-75" y="17"/>
      <point x="-75" y="19" type="curve" smooth="yes"/>
      <point x="-75" y="38"/>
      <point x="-66" y="58"/>
      <point x="-56" y="74" type="curve"/>
      <point x="57" y="74"/>
      <point x="118" y="116"/>
      <point x="180" y="211" type="curve" smooth="yes"/>
      <point x="864" y="1264" type="line"/>
      <point x="1027" y="1264" type="line"/>
      <point x="1000" y="201" type="line" smooth="yes"/>
      <point x="997" y="92"/>
      <point x="1069" y="74"/>
      <point x="1165" y="74" type="curve"/>
      <point x="1175" y="70"/>
      <point x="1175" y="37"/>
      <point x="1175" y="30" type="curve" smooth="yes"/>
      <point x="1175" y="26"/>
      <point x="1174" y="0"/>
      <point x="1165" y="0" type="curve" smooth="yes"/>
      <point x="667" y="0" type="line" smooth="yes"/>
      <point x="660" y="0"/>
      <point x="660" y="18"/>
      <point x="660" y="19" type="curve" smooth="yes"/>
      <point x="660" y="38"/>
      <point x="669" y="58"/>
      <point x="678" y="74" type="curve"/>
      <point x="884" y="74"/>
      <point x="844" y="244"/>
      <point x="854" y="408" type="curve"/>
      <point x="451" y="408" type="line"/>
      <point x="434" y="381"/>
      <point x="296" y="192"/>
    </contour>
  </outline>
</glyph>
<glyph name="B" format="1">
  <advance width="1243"/>
  <unicode hex="0042"/>
  <outline>
    <contour>
      <point x="568" y="1264" type="move" name="top"/>
    </contour>
    <contour>
      <point x="1197" y="983" type="curve" smooth="yes"/>
      <point x="1197" y="819"/>
      <point x="1036" y="706"/>
      <point x="887" y="676" type="curve"/>
      <point x="1025" y="630"/>
      <point x="1134" y="536"/>
      <point x="1134" y="374" type="curve" smooth="yes"/>
      <point x="1134" y="10"/>
      <point x="714" y="0"/>
      <point x="421" y="0" type="curve" smooth="yes"/>
      <point x="-53" y="0" type="line" smooth="yes"/>
      <point x="-60" y="0"/>
      <point x="-60" y="18"/>
      <point x="-60" y="19" type="curve" smooth="yes"/>
      <point x="-60" y="38"/>
      <point x="-51" y="59"/>
      <point x="-41" y="74" type="curve"/>
      <point x="66" y="74"/>
      <point x="133" y="104"/>
      <point x="156" y="218" type="curve" smooth="yes"/>
      <point x="191" y="391"/>
      <point x="328" y="948"/>
      <point x="328" y="1091" type="curve" smooth="yes"/>
      <point x="328" y="1217"/>
      <point x="176" y="1162"/>
      <point x="176" y="1209" type="curve" smooth="yes"/>
      <point x="176" y="1227"/>
      <point x="181" y="1247"/>
      <point x="187" y="1264" type="curve"/>
      <point x="728" y="1264" type="line" smooth="yes"/>
      <point x="909" y="1264"/>
      <point x="1197" y="1220"/>
    </contour>
    <contour>
      <point x="301" y="88" type="curve"/>
      <point x="503" y="88" type="line" smooth="yes"/>
      <point x="703" y="88"/>
      <point x="969" y="118"/>
      <point x="969" y="377" type="curve" smooth="yes"/>
      <point x="969" y="617"/>
      <point x="719" y="634"/>
      <point x="611" y="634" type="curve" smooth="yes"/>
      <point x="408" y="634" type="line"/>
      <point x="371" y="451"/>
      <point x="339" y="267"/>
    </contour>
    <contour>
      <point x="600" y="706" type="line" smooth="yes"/>
      <point x="758" y="706"/>
      <point x="1025" y="751"/>
      <point x="1025" y="958" type="curve" smooth="yes"/>
      <point x="1025" y="1139"/>
      <point x="828" y="1190"/>
      <point x="698" y="1190" type="curve" smooth="yes"/>
      <point x="605" y="1190"/>
      <point x="537" y="1177"/>
      <point x="508" y="1057" type="curve"/>
      <point x="475" y="942"/>
      <point x="448" y="825"/>
      <point x="423" y="706" type="curve"/>
    </contour>
  </outline>
</glyph>
<glyph name="D" format="1">
  <advance width="1359"/>
  <unicode hex="0044"/>
  <outline>
    <contour>
      <point x="621" y="1264" type="move" name="top"/>
    </contour>
    <contour>
      <point x="617" y="88" type="line" smooth="yes"/>
      <point x="937" y="88"/>
      <point x="1105" y="574"/>
      <point x="1105" y="836" type="curve" smooth="yes"/>
      <point x="1105" y="1034"/>
      <point x="988" y="1190"/>
      <point x="765" y="1190" type="curve" smooth="yes"/>
      <point x="678" y="1190" type="line" smooth="yes"/>
      <point x="589" y="1190"/>
      <point x="539" y="1173"/>
      <point x="519" y="1097" type="curve" smooth="yes"/>
      <point x="303" y="88" type="line"/>
    </contour>
    <contour>
      <point x="756" y="1264" type="line" smooth="yes"/>
      <point x="1046" y="1264"/>
      <point x="1302" y="1066"/>
      <point x="1302" y="762" type="curve" smooth="yes"/>
      <point x="1302" y="399"/>
      <point x="1024" y="0"/>
      <point x="635" y="0" type="curve" smooth="yes"/>
      <point x="-53" y="0" type="line"/>
      <point x="-60" y="18" type="line"/>
      <point x="-42" y="73" type="line"/>
      <point x="70" y="73"/>
      <point x="124" y="102"/>
      <point x="155" y="213" type="curve" smooth="yes"/>
      <point x="194" y="356"/>
      <point x="346" y="984"/>
      <point x="346" y="1094" type="curve" smooth="yes"/>
      <point x="346" y="1224"/>
      <point x="176" y="1160"/>
      <point x="176" y="1209" type="curve" smooth="yes"/>
      <point x="176" y="1229"/>
      <point x="184" y="1249"/>
      <point x="197" y="1264" type="curve"/>
    </contour>
  </outline>
</glyph>
<glyph name="I" format="1">
  <advance width="575"/>
  <unicode hex="0049"/>
  <outline>
    <contour>
      <point x="468" y="1264" type="move" name="top"/>
    </contour>
    <contour>
      <point x="324" y="0" type="move" name="bot"/>
    </contour>
    <contour>
      <point x="-39" y="76" type="curve"/>
      <point x="71" y="76"/>
      <point x="128" y="106"/>
      <point x="154" y="217" type="curve" smooth="yes"/>
      <point x="209" y="450"/>
      <point x="340" y="883"/>
      <point x="340" y="1103" type="curve" smooth="yes"/>
      <point x="340" y="1183"/>
      <point x="255" y="1188"/>
      <point x="195" y="1190" type="curve"/>
      <point x="194" y="1200"/>
      <point x="191" y="1209"/>
      <point x="191" y="1219" type="curve" smooth="yes"/>
      <point x="191" y="1235"/>
      <point x="194" y="1252"/>
      <point x="206" y="1264" type="curve"/>
      <point x="702" y="1264" type="line"/>
      <point x="704" y="1259"/>
      <point x="709" y="1250"/>
      <point x="709" y="1244" type="curve" smooth="yes"/>
      <point x="709" y="1224"/>
      <point x="700" y="1206"/>
      <point x="688" y="1190" type="curve"/>
      <point x="576" y="1190"/>
      <point x="521" y="1160"/>
      <point x="495" y="1047" type="curve" smooth="yes"/>
      <point x="441" y="815"/>
      <point x="310" y="382"/>
      <point x="310" y="163" type="curve" smooth="yes"/>
      <point x="310" y="82"/>
      <point x="394" y="76"/>
      <point x="455" y="74" type="curve"/>
      <point x="456" y="65"/>
      <point x="459" y="54"/>
      <point x="459" y="45" type="curve" smooth="yes"/>
      <point x="459" y="29"/>
      <point x="456" y="12"/>
      <point x="444" y="0" type="curve"/>
      <point x="-52" y="0" type="line"/>
      <point x="-58" y="7"/>
      <point x="-61" y="15"/>
      <point x="-61" y="24" type="curve" smooth="yes"/>
      <point x="-61" y="42"/>
      <point x="-51" y="63"/>
    </contour>
  </outline>
</glyph>
<glyph name="M" format="1">
  <advance width="1636"/>
  <unicode hex="004D"/>
  <outline>
    <contour>
      <point x="836" y="1264" type="move" name="top"/>
    </contour>
    <contour>
      <point x="448" y="74" type="curve"/>
      <point x="450" y="65"/>
      <point x="453" y="54"/>
      <point x="453" y="45" type="curve" smooth="yes"/>
      <point x="453" y="29"/>
      <point x="449" y="12"/>
      <point x="437" y="0" type="curve"/>
      <point x="-75" y="0" type="line"/>
      <point x="-83" y="19" type="line"/>
      <point x="-61" y="75" type="line"/>
      <point x="47" y="75"/>
      <point x="112" y="106"/>
      <point x="140" y="216" type="curve" smooth="yes"/>
      <point x="178" y="365"/>
      <point x="336" y="983"/>
      <point x="336" y="1091" type="curve" smooth="yes"/>
      <point x="336" y="1176"/>
      <point x="238" y="1190"/>
      <point x="173" y="1191" type="curve"/>
      <point x="171" y="1219" type="line"/>
      <point x="171" y="1235"/>
      <point x="175" y="1252"/>
      <point x="187" y="1264" type="curve"/>
      <point x="674" y="1264" type="line"/>
      <point x="767" y="288" type="line"/>
      <point x="1318" y="1264" type="line"/>
      <point x="1749" y="1264" type="line"/>
      <point x="1751" y="1259"/>
      <point x="1756" y="1250"/>
      <point x="1756" y="1244" type="curve" smooth="yes"/>
      <point x="1756" y="1224"/>
      <point x="1747" y="1206"/>
      <point x="1735" y="1190" type="curve"/>
      <point x="1629" y="1190"/>
      <point x="1581" y="1149"/>
      <point x="1556" y="1047" type="curve" smooth="yes"/>
      <point x="1499" y="818"/>
      <point x="1357" y="376"/>
      <point x="1357" y="161" type="curve" smooth="yes"/>
      <point x="1357" y="87"/>
      <point x="1467" y="76"/>
      <point x="1521" y="74" type="curve"/>
      <point x="1522" y="65"/>
      <point x="1525" y="54"/>
      <point x="1525" y="45" type="curve" smooth="yes"/>
      <point x="1525" y="29"/>
      <point x="1521" y="12"/>
      <point x="1509" y="0" type="curve"/>
      <point x="990" y="0" type="line"/>
      <point x="983" y="19" type="line"/>
      <point x="1003" y="74" type="line"/>
      <point x="1112" y="74"/>
      <point x="1172" y="108"/>
      <point x="1198" y="217" type="curve" smooth="yes"/>
      <point x="1426" y="1172" type="line"/>
      <point x="1345" y="1036"/>
      <point x="773" y="8"/>
      <point x="696" y="8" type="curve" smooth="yes"/>
      <point x="663" y="8"/>
      <point x="654" y="47"/>
      <point x="651" y="73" type="curve" smooth="yes"/>
      <point x="510" y="1162" type="line"/>
      <point x="452" y="922"/>
      <point x="276" y="375"/>
      <point x="276" y="163" type="curve" smooth="yes"/>
      <point x="276" y="83"/>
      <point x="390" y="74"/>
    </contour>
  </outline>
</glyph>
<glyph name="N" format="1">
  <advance width="1385"/>
  <unicode hex="004E"/>
  <outline>
    <contour>
      <point x="734" y="1264" type="move" name="top"/>
    </contour>
    <contour>
      <point x="734" y="0" type="move" name="bot"/>
    </contour>
    <contour>
      <point x="-52" y="0" type="line"/>
      <point x="-53" y="-2" type="line"/>
      <point x="-60" y="17" type="line"/>
      <point x="-39" y="73" type="line"/>
      <point x="68" y="73"/>
      <point x="130" y="105"/>
      <point x="155" y="214" type="curve" smooth="yes"/>
      <point x="178" y="317"/>
      <point x="354" y="1057"/>
      <point x="354" y="1110" type="curve" smooth="yes"/>
      <point x="354" y="1200"/>
      <point x="184" y="1173"/>
      <point x="184" y="1206" type="curve" smooth="yes"/>
      <point x="184" y="1226"/>
      <point x="190" y="1246"/>
      <point x="198" y="1264" type="curve"/>
      <point x="632" y="1264" type="line"/>
      <point x="1015" y="220" type="line"/>
      <point x="1036" y="318"/>
      <point x="1207" y="1058"/>
      <point x="1207" y="1107" type="curve" smooth="yes"/>
      <point x="1207" y="1177"/>
      <point x="1108" y="1190"/>
      <point x="1055" y="1190" type="curve"/>
      <point x="1043" y="1202"/>
      <point x="1041" y="1218"/>
      <point x="1041" y="1234" type="curve"/>
      <point x="1044" y="1264" type="line"/>
      <point x="1525" y="1264" type="line"/>
      <point x="1528" y="1234" type="line"/>
      <point x="1528" y="1218"/>
      <point x="1526" y="1202"/>
      <point x="1514" y="1190" type="curve"/>
      <point x="1409" y="1190"/>
      <point x="1358" y="1149"/>
      <point x="1335" y="1046" type="curve" smooth="yes"/>
      <point x="1094" y="-30" type="line"/>
      <point x="1072" y="-37"/>
      <point x="1049" y="-40"/>
      <point x="1026" y="-40" type="curve" smooth="yes"/>
      <point x="1010" y="-40"/>
      <point x="960" y="-41"/>
      <point x="953" y="-23" type="curve" smooth="yes"/>
      <point x="502" y="1169" type="line"/>
      <point x="478" y="1060"/>
      <point x="282" y="201"/>
      <point x="282" y="148" type="curve" smooth="yes"/>
      <point x="282" y="89"/>
      <point x="399" y="76"/>
      <point x="441" y="74" type="curve"/>
      <point x="442" y="65"/>
      <point x="445" y="54"/>
      <point x="445" y="45" type="curve" smooth="yes"/>
      <point x="445" y="29"/>
      <point x="441" y="12"/>
      <point x="429" y="0" type="curve"/>
    </contour>
  </outline>
</glyph>
<glyph name="O" format="1">
  <advance width="1239"/>
  <unicode hex="004F"/>
  <outline>
    <contour>
      <point x="658" y="1264" type="move" name="top"/>
    </contour>
    <contour>
      <point x="658" y="0" type="move" name="bot"/>
    </contour>
    <contour>
      <point x="580" y="78" type="curve" smooth="yes"/>
      <point x="883" y="78"/>
      <point x="1026" y="507"/>
      <point x="1026" y="753" type="curve" smooth="yes"/>
      <point x="1026" y="958"/>
      <point x="959" y="1199"/>
      <point x="711" y="1199" type="curve" smooth="yes"/>
      <point x="415" y="1199"/>
      <point x="288" y="731"/>
      <point x="288" y="499" type="curve" smooth="yes"/>
      <point x="288" y="312"/>
      <point x="353" y="78"/>
    </contour>
    <contour>
      <point x="725" y="1301" type="curve" smooth="yes"/>
      <point x="1048" y="1301"/>
      <point x="1216" y="1055"/>
      <point x="1216" y="737" type="curve" smooth="yes"/>
      <point x="1216" y="384"/>
      <point x="982" y="-34"/>
      <point x="575" y="-34" type="curve" smooth="yes"/>
      <point x="252" y="-34"/>
      <point x="101" y="237"/>
      <point x="101" y="544" type="curve" smooth="yes"/>
      <point x="101" y="889"/>
      <point x="325" y="1301"/>
    </contour>
  </outline>
</glyph>
<glyph name="P" format="1">
  <advance width="1105"/>
  <unicode hex="0050"/>
  <outline>
    <contour>
      <point x="560" y="1264" type="move" name="top"/>
    </contour>
    <contour>
      <point x="507" y="74" type="curve"/>
      <point x="509" y="65"/>
      <point x="512" y="54"/>
      <point x="512" y="45" type="curve" smooth="yes"/>
      <point x="512" y="30"/>
      <point x="506" y="12"/>
      <point x="496" y="0" type="curve"/>
      <point x="-52" y="0" type="line"/>
      <point x="-60" y="19" type="line"/>
      <point x="-38" y="75" type="line"/>
      <point x="75" y="74"/>
      <point x="141" y="99"/>
      <point x="171" y="215" type="curve" smooth="yes"/>
      <point x="210" y="364"/>
      <point x="364" y="981"/>
      <point x="364" y="1093" type="curve" smooth="yes"/>
      <point x="364" y="1187"/>
      <point x="239" y="1192"/>
      <point x="172" y="1191" type="curve"/>
      <point x="171" y="1201"/>
      <point x="168" y="1209"/>
      <point x="168" y="1219" type="curve" smooth="yes"/>
      <point x="168" y="1234"/>
      <point x="174" y="1252"/>
      <point x="184" y="1264" type="curve"/>
      <point x="446" y="1264" type="line" smooth="yes"/>
      <point x="673" y="1264"/>
      <point x="1181" y="1259"/>
      <point x="1181" y="934" type="curve" smooth="yes"/>
      <point x="1181" y="677"/>
      <point x="821" y="612"/>
      <point x="623" y="612" type="curve" smooth="yes"/>
      <point x="595" y="612"/>
      <point x="574" y="622"/>
      <point x="574" y="653" type="curve" smooth="yes"/>
      <point x="574" y="670"/>
      <point x="586" y="686"/>
      <point x="604" y="686" type="curve" smooth="yes"/>
      <point x="760" y="686"/>
      <point x="987" y="743"/>
      <point x="987" y="937" type="curve" smooth="yes"/>
      <point x="987" y="1140"/>
      <point x="713" y="1190"/>
      <point x="557" y="1190" type="curve"/>
      <point x="509" y="969"/>
      <point x="336" y="345"/>
      <point x="336" y="169" type="curve" smooth="yes"/>
      <point x="336" y="83"/>
      <point x="444" y="75"/>
    </contour>
  </outline>
</glyph>
<glyph name="R" format="1">
  <advance width="1250"/>
  <unicode hex="0052"/>
  <outline>
    <contour>
      <point x="570" y="1264" type="move" name="top"/>
    </contour>
    <contour>
      <point x="570" y="0" type="move" name="bot"/>
    </contour>
    <contour>
      <point x="490" y="75" type="curve"/>
      <point x="498" y="42" type="line"/>
      <point x="482" y="0" type="line"/>
      <point x="-52" y="0" type="line"/>
      <point x="-60" y="17" type="line"/>
      <point x="-38" y="73" type="line"/>
      <point x="74" y="73"/>
      <point x="131" y="102"/>
      <point x="160" y="214" type="curve" smooth="yes"/>
      <point x="195" y="347"/>
      <point x="351" y="988"/>
      <point x="351" y="1081" type="curve" smooth="yes"/>
      <point x="351" y="1172"/>
      <point x="266" y="1187"/>
      <point x="193" y="1189" type="curve"/>
      <point x="191" y="1198"/>
      <point x="188" y="1208"/>
      <point x="188" y="1218" type="curve" smooth="yes"/>
      <point x="188" y="1234"/>
      <point x="194" y="1252"/>
      <point x="204" y="1264" type="curve"/>
      <point x="552" y="1264" type="line" smooth="yes"/>
      <point x="776" y="1264"/>
      <point x="1200" y="1253"/>
      <point x="1200" y="941" type="curve" smooth="yes"/>
      <point x="1200" y="711"/>
      <point x="983" y="630"/>
      <point x="785" y="607" type="curve"/>
      <point x="954" y="95"/>
      <point x="945" y="94"/>
      <point x="1150" y="94" type="curve" smooth="yes"/>
      <point x="1158" y="94"/>
      <point x="1167" y="95"/>
      <point x="1175" y="96" type="curve"/>
      <point x="1175" y="35"/>
      <point x="1150" y="-19"/>
      <point x="1082" y="-19" type="curve" smooth="yes"/>
      <point x="830" y="-19"/>
      <point x="813" y="59"/>
      <point x="626" y="599" type="curve"/>
      <point x="408" y="599" type="line"/>
      <point x="379" y="469"/>
      <point x="324" y="303"/>
      <point x="324" y="170" type="curve" smooth="yes"/>
      <point x="324" y="83"/>
      <point x="425" y="75"/>
    </contour>
    <contour>
      <point x="427" y="684" type="line"/>
      <point x="948" y="684"/>
      <point x="1023" y="793"/>
      <point x="1023" y="956" type="curve" smooth="yes"/>
      <point x="1023" y="1125"/>
      <point x="863" y="1191"/>
      <point x="616" y="1191" type="curve"/>
      <point x="541" y="1190" type="line"/>
    </contour>
  </outline>
</glyph>
<glyph name="T" format="1">
  <advance width="1109"/>
  <unicode hex="0054"/>
  <outline>
    <contour>
      <point x="648" y="1264" type="move" name="top"/>
    </contour>
    <contour>
      <point x="648" y="0" type="move" name="bot"/>
    </contour>
    <contour>
      <point x="543" y="164" type="curve" smooth="yes"/>
      <point x="543" y="85"/>
      <point x="650" y="76"/>
      <point x="709" y="74" type="curve"/>
      <point x="710" y="65"/>
      <point x="713" y="54"/>
      <point x="713" y="45" type="curve" smooth="yes"/>
      <point x="713" y="28"/>
      <point x="706" y="11"/>
      <point x="693" y="0" type="curve"/>
      <point x="135" y="0" type="line"/>
      <point x="127" y="19" type="line"/>
      <point x="148" y="75" type="line"/>
      <point x="254" y="75"/>
      <point x="340" y="100"/>
      <point x="365" y="215" type="curve" smooth="yes"/>
      <point x="576" y="1190" type="line"/>
      <point x="333" y="1190" type="line" smooth="yes"/>
      <point x="241" y="1190"/>
      <point x="192" y="929"/>
      <point x="102" y="929" type="curve" smooth="yes"/>
      <point x="82" y="929"/>
      <point x="62" y="938"/>
      <point x="49" y="954" type="curve"/>
      <point x="119" y="1264" type="line"/>
      <point x="1247" y="1264" type="line"/>
      <point x="1183" y="965" type="line"/>
      <point x="1163" y="946"/>
      <point x="1136" y="930"/>
      <point x="1107" y="930" type="curve" smooth="yes"/>
      <point x="1029" y="930"/>
      <point x="1085" y="1190"/>
      <point x="991" y="1190" type="curve" smooth="yes"/>
      <point x="763" y="1190" type="line"/>
      <point x="704" y="920"/>
      <point x="543" y="328"/>
    </contour>
  </outline>
</glyph>
<glyph name="W" format="1">
  <advance width="1880"/>
  <unicode hex="0057"/>
  <outline>
    <contour>
      <point x="1043" y="1264" type="move" name="top"/>
    </contour>
    <contour>
      <point x="1516" y="1209" type="curve" smooth="yes"/>
      <point x="1516" y="1228"/>
      <point x="1522" y="1247"/>
      <point x="1530" y="1264" type="curve"/>
      <point x="2039" y="1264" type="line"/>
      <point x="2043" y="1255"/>
      <point x="2045" y="1243"/>
      <point x="2045" y="1233" type="curve" smooth="yes"/>
      <point x="2045" y="1218"/>
      <point x="2041" y="1199"/>
      <point x="2030" y="1189" type="curve"/>
      <point x="1920" y="1189"/>
      <point x="1841" y="1151"/>
      <point x="1786" y="1052" type="curve" smooth="yes"/>
      <point x="1196" y="-7" type="line"/>
      <point x="1033" y="-7" type="line"/>
      <point x="950" y="869" type="line"/>
      <point x="472" y="-7" type="line"/>
      <point x="310" y="-7" type="line"/>
      <point x="245" y="1062" type="line" smooth="yes"/>
      <point x="234" y="1240"/>
      <point x="42" y="1153"/>
      <point x="42" y="1209" type="curve" smooth="yes"/>
      <point x="42" y="1228"/>
      <point x="48" y="1247"/>
      <point x="56" y="1264" type="curve"/>
      <point x="589" y="1264" type="line"/>
      <point x="591" y="1254"/>
      <point x="594" y="1242"/>
      <point x="594" y="1232" type="curve" smooth="yes"/>
      <point x="594" y="1219"/>
      <point x="592" y="1198"/>
      <point x="581" y="1189" type="curve"/>
      <point x="485" y="1189"/>
      <point x="406" y="1169"/>
      <point x="406" y="1055" type="curve" smooth="yes"/>
      <point x="406" y="779"/>
      <point x="437" y="492"/>
      <point x="452" y="216" type="curve"/>
      <point x="511" y="325"/>
      <point x="930" y="1044"/>
      <point x="930" y="1124" type="curve" smooth="yes"/>
      <point x="930" y="1215"/>
      <point x="800" y="1163"/>
      <point x="800" y="1209" type="curve" smooth="yes"/>
      <point x="800" y="1228"/>
      <point x="806" y="1247"/>
      <point x="813" y="1264" type="curve"/>
      <point x="1291" y="1264" type="line"/>
      <point x="1295" y="1254"/>
      <point x="1296" y="1243"/>
      <point x="1296" y="1233" type="curve" smooth="yes"/>
      <point x="1296" y="1219"/>
      <point x="1293" y="1200"/>
      <point x="1283" y="1189" type="curve"/>
      <point x="1200" y="1189"/>
      <point x="1092" y="1181"/>
      <point x="1092" y="1071" type="curve" smooth="yes"/>
      <point x="1092" y="810"/>
      <point x="1145" y="474"/>
      <point x="1169" y="208" type="curve"/>
      <point x="1221" y="301"/>
      <point x="1664" y="1060"/>
      <point x="1664" y="1121" type="curve" smooth="yes"/>
      <point x="1664" y="1219"/>
      <point x="1516" y="1161"/>
    </contour>
  </outline>
</glyph>
<glyph name="backslash" format="1">
  <advance width="539"/>
  <unicode hex="005C"/>
  <outline>
    <contour>
      <point x="120" y="1369" type="curve"/>
      <point x="121" y="1369" type="line"/>
      <point x="140" y="1380"/>
      <point x="167" y="1397"/>
      <point x="179" y="1385" type="curve" smooth="yes"/>
      <point x="228" y="1336"/>
      <point x="219" y="1226"/>
      <point x="234" y="1139" type="curve" smooth="yes"/>
      <point x="411" y="69" type="line" smooth="yes"/>
      <point x="413" y="58"/>
      <point x="414" y="47"/>
      <point x="414" y="35" type="curve" smooth="yes"/>
      <point x="414" y="-6"/>
      <point x="404" y="-58"/>
      <point x="399" y="-100" type="curve"/>
      <point x="395" y="-100" type="line" smooth="yes"/>
      <point x="380" y="-100"/>
      <point x="357" y="-107"/>
      <point x="353" y="-98" type="curve" smooth="yes"/>
      <point x="332" y="-53"/>
      <point x="331" y="2"/>
      <point x="324" y="55" type="curve" smooth="yes"/>
      <point x="266" y="497"/>
      <point x="160" y="927"/>
    </contour>
  </outline>
</glyph>
<glyph name="asciicircum" format="1">
  <advance width="935"/>
  <unicode hex="005E"/>
  <outline>
    <contour>
      <point x="644" y="1358" type="curve"/>
      <point x="645" y="1358" type="line"/>
      <point x="713" y="1166"/>
      <point x="801" y="942"/>
      <point x="847" y="749" type="curve"/>
      <point x="823" y="742"/>
      <point x="792" y="723"/>
      <point x="779" y="739" type="curve" smooth="yes"/>
      <point x="684" y="860"/>
      <point x="643" y="1046"/>
      <point x="579" y="1200" type="curve"/>
      <point x="568" y="1225" type="line"/>
      <point x="550" y="1204" type="line" smooth="yes"/>
      <point x="417" y="1049"/>
      <point x="354" y="739"/>
      <point x="152" y="739" type="curve" smooth="yes"/>
      <point x="130" y="739"/>
      <point x="111" y="741"/>
      <point x="93" y="746" type="curve"/>
      <point x="206" y="917"/>
      <point x="375" y="1124"/>
      <point x="501" y="1289" type="curve" smooth="yes"/>
      <point x="525" y="1321"/>
      <point x="549" y="1374"/>
      <point x="589" y="1374" type="curve" smooth="yes"/>
      <point x="613" y="1374"/>
      <point x="630" y="1367"/>
    </contour>
  </outline>
</glyph>
<glyph name="underscore" format="1">
  <advance width="1162"/>
  <unicode hex="005F"/>
  <outline>
    <contour>
      <point x="965" y="-117" type="curve" smooth="yes"/>
      <point x="965" y="-145"/>
      <point x="877" y="-132"/>
      <point x="850" y="-132" type="curve" smooth="yes"/>
      <point x="188" y="-132" type="line"/>
      <point x="160" y="-118"/>
      <point x="159" y="-110"/>
      <point x="159" y="-81" type="curve"/>
      <point x="204" y="-66"/>
      <point x="255" y="-66"/>
      <point x="301" y="-66" type="curve" smooth="yes"/>
      <point x="936" y="-66" type="line"/>
      <point x="960" y="-80"/>
      <point x="965" y="-92"/>
    </contour>
  </outline>
</glyph>
<glyph name="b" format="1">
  <advance width="1005"/>
  <unicode hex="0062"/>
  <outline>
    <contour>
      <point x="347" y="715" type="line"/>
      <point x="441" y="850"/>
      <point x="563" y="891"/>
      <point x="659" y="891" type="curve" smooth="yes"/>
      <point x="821" y="891"/>
      <point x="943" y="778"/>
      <point x="943" y="597" type="curve" smooth="yes"/>
      <point x="943" y="262"/>
      <point x="688" y="-19"/>
      <point x="404" y="-19" type="curve" smooth="yes"/>
      <point x="233" y="-19"/>
      <point x="102" y="59"/>
      <point x="102" y="298" type="curve" smooth="yes"/>
      <point x="102" y="473"/>
      <point x="167" y="641"/>
      <point x="322" y="1225" type="curve"/>
      <point x="161" y="1235" type="line"/>
      <point x="144" y="1238"/>
      <point x="137" y="1250"/>
      <point x="137" y="1265" type="curve" smooth="yes"/>
      <point x="137" y="1308"/>
      <point x="239" y="1316"/>
      <point x="449" y="1342" type="curve" smooth="yes"/>
      <point x="456" y="1343"/>
      <point x="463" y="1344"/>
      <point x="469" y="1344" type="curve" smooth="yes"/>
      <point x="490" y="1344"/>
      <point x="503" y="1336"/>
      <point x="503" y="1309" type="curve"/>
      <point x="502" y="1291"/>
      <point x="497" y="1263"/>
      <point x="488" y="1228" type="curve" smooth="yes"/>
    </contour>
    <contour>
      <point x="631" y="813" type="curve" smooth="yes"/>
      <point x="394" y="813"/>
      <point x="274" y="527"/>
      <point x="274" y="290" type="curve" smooth="yes"/>
      <point x="274" y="127"/>
      <point x="337" y="82"/>
      <point x="425" y="82" type="curve" smooth="yes"/>
      <point x="638" y="82"/>
      <point x="782" y="405"/>
      <point x="782" y="594" type="curve" smooth="yes"/>
      <point x="782" y="701"/>
      <point x="731" y="813"/>
    </contour>
  </outline>
</glyph>
<glyph name="d" format="1">
  <advance width="1140"/>
  <unicode hex="0064"/>
  <outline>
    <contour>
      <point x="1112" y="333" type="curve"/>
      <point x="1172" y="286" type="line"/>
      <point x="1083" y="153"/>
      <point x="975" y="-21"/>
      <point x="815" y="-21" type="curve" smooth="yes"/>
      <point x="731" y="-21"/>
      <point x="688" y="41"/>
      <point x="688" y="150" type="curve" smooth="yes"/>
      <point x="688" y="187"/>
      <point x="695" y="226"/>
      <point x="699" y="260" type="curve"/>
      <point x="621" y="114"/>
      <point x="525" y="-19"/>
      <point x="335" y="-19" type="curve" smooth="yes"/>
      <point x="154" y="-19"/>
      <point x="71" y="195"/>
      <point x="71" y="351" type="curve" smooth="yes"/>
      <point x="71" y="629"/>
      <point x="271" y="891"/>
      <point x="541" y="891" type="curve" smooth="yes"/>
      <point x="626" y="891"/>
      <point x="750" y="824"/>
      <point x="770" y="689" type="curve" smooth="yes"/>
      <point x="770" y="686"/>
      <point x="903" y="1192"/>
      <point x="903" y="1192" type="curve"/>
      <point x="909" y="1214" type="line"/>
      <point x="736" y="1214" type="line" smooth="yes"/>
      <point x="712" y="1214"/>
      <point x="710" y="1220"/>
      <point x="710" y="1226" type="curve" smooth="yes"/>
      <point x="710" y="1244"/>
      <point x="727" y="1294"/>
      <point x="736" y="1295" type="curve" smooth="yes"/>
      <point x="1033" y="1331" type="line" smooth="yes"/>
      <point x="1040" y="1332"/>
      <point x="1045" y="1332"/>
      <point x="1052" y="1332" type="curve" smooth="yes"/>
      <point x="1081" y="1332"/>
      <point x="1086" y="1327"/>
      <point x="1086" y="1298" type="curve" smooth="yes"/>
      <point x="1086" y="1279"/>
      <point x="1080" y="1252"/>
      <point x="1071" y="1217" type="curve" smooth="yes"/>
      <point x="826" y="296" type="line" smooth="yes"/>
      <point x="822" y="281"/>
      <point x="805" y="225"/>
      <point x="805" y="177" type="curve" smooth="yes"/>
      <point x="805" y="138"/>
      <point x="824" y="91"/>
      <point x="877" y="91" type="curve" smooth="yes"/>
      <point x="950" y="91"/>
      <point x="1011" y="191"/>
    </contour>
    <contour>
      <point x="557" y="807" type="curve" smooth="yes"/>
      <point x="376" y="807"/>
      <point x="252" y="552"/>
      <point x="252" y="325" type="curve" smooth="yes"/>
      <point x="252" y="220"/>
      <point x="287" y="85"/>
      <point x="406" y="85" type="curve" smooth="yes"/>
      <point x="570" y="85"/>
      <point x="729" y="370"/>
      <point x="729" y="550" type="curve" smooth="yes"/>
      <point x="729" y="810"/>
      <point x="562" y="807"/>
    </contour>
  </outline>
</glyph>
<glyph name="h" format="1">
  <advance width="1186"/>
  <unicode hex="0068"/>
  <outline>
    <contour>
      <point x="270" y="271" type="line"/>
      <point x="370" y="432"/>
      <point x="615" y="891"/>
      <point x="852" y="891" type="curve" smooth="yes"/>
      <point x="978" y="891"/>
      <point x="1022" y="807"/>
      <point x="1022" y="730" type="curve" smooth="yes"/>
      <point x="1022" y="542"/>
      <point x="866" y="317"/>
      <point x="866" y="158" type="curve" smooth="yes"/>
      <point x="866" y="128"/>
      <point x="873" y="91"/>
      <point x="908" y="91" type="curve" smooth="yes"/>
      <point x="973" y="91"/>
      <point x="1031" y="174"/>
      <point x="1107" y="284" type="curve" smooth="yes"/>
      <point x="1120" y="303" type="line"/>
      <point x="1150" y="278"/>
      <point x="1168" y="262"/>
      <point x="1177" y="254" type="curve"/>
      <point x="1155" y="224" type="line" smooth="yes"/>
      <point x="1041" y="69"/>
      <point x="962" y="-19"/>
      <point x="832" y="-19" type="curve" smooth="yes"/>
      <point x="746" y="-19"/>
      <point x="698" y="44"/>
      <point x="698" y="139" type="curve" smooth="yes"/>
      <point x="698" y="356"/>
      <point x="867" y="619"/>
      <point x="867" y="721" type="curve" smooth="yes"/>
      <point x="867" y="747"/>
      <point x="852" y="776"/>
      <point x="817" y="776" type="curve" smooth="yes"/>
      <point x="695" y="776"/>
      <point x="485" y="434"/>
      <point x="417" y="327" type="curve" smooth="yes"/>
      <point x="388" y="281"/>
      <point x="302" y="151"/>
      <point x="229" y="41" type="curve" smooth="yes"/>
      <point x="203" y="3"/>
      <point x="163" y="-19"/>
      <point x="128" y="-19" type="curve" smooth="yes"/>
      <point x="85" y="-19"/>
      <point x="48" y="12"/>
      <point x="48" y="82" type="curve" smooth="yes"/>
      <point x="48" y="115"/>
      <point x="57" y="147"/>
      <point x="67" y="183" type="curve" smooth="yes"/>
      <point x="368" y="1295" type="line"/>
      <point x="190" y="1295" type="line" smooth="yes"/>
      <point x="164" y="1295"/>
      <point x="163" y="1300"/>
      <point x="163" y="1307" type="curve" smooth="yes"/>
      <point x="163" y="1326"/>
      <point x="180" y="1375"/>
      <point x="190" y="1376" type="curve" smooth="yes"/>
      <point x="488" y="1412" type="line" smooth="yes"/>
      <point x="495" y="1413"/>
      <point x="500" y="1413"/>
      <point x="507" y="1413" type="curve" smooth="yes"/>
      <point x="535" y="1413"/>
      <point x="540" y="1408"/>
      <point x="540" y="1380" type="curve" smooth="yes"/>
      <point x="540" y="1362"/>
      <point x="536" y="1333"/>
      <point x="527" y="1298" type="curve" smooth="yes"/>
      <point x="256" y="278" type="line"/>
    </contour>
  </outline>
</glyph>
<glyph name="l" format="1">
  <advance width="585"/>
  <unicode hex="006C"/>
  <outline>
    <contour>
      <point x="360" y="1224" type="line"/>
      <point x="199" y="1234" type="line"/>
      <point x="182" y="1237"/>
      <point x="175" y="1249"/>
      <point x="175" y="1264" type="curve" smooth="yes"/>
      <point x="175" y="1307"/>
      <point x="277" y="1315"/>
      <point x="487" y="1341" type="curve" smooth="yes"/>
      <point x="494" y="1342"/>
      <point x="501" y="1343"/>
      <point x="507" y="1343" type="curve" smooth="yes"/>
      <point x="528" y="1343"/>
      <point x="541" y="1335"/>
      <point x="541" y="1308" type="curve" smooth="yes"/>
      <point x="541" y="1290"/>
      <point x="534" y="1262"/>
      <point x="526" y="1227" type="curve"/>
      <point x="266" y="257" type="line" smooth="yes"/>
      <point x="257" y="224"/>
      <point x="251" y="195"/>
      <point x="251" y="169" type="curve" smooth="yes"/>
      <point x="251" y="129"/>
      <point x="266" y="91"/>
      <point x="305" y="91" type="curve" smooth="yes"/>
      <point x="346" y="91"/>
      <point x="392" y="131"/>
      <point x="444" y="209" type="curve" smooth="yes"/>
      <point x="501" y="295" type="line"/>
      <point x="566" y="250" type="line"/>
      <point x="505" y="161" type="line" smooth="yes"/>
      <point x="444" y="72"/>
      <point x="357" y="-19"/>
      <point x="236" y="-19" type="curve" smooth="yes"/>
      <point x="138" y="-19"/>
      <point x="84" y="66"/>
      <point x="84" y="166" type="curve"/>
      <point x="83" y="236"/>
      <point x="109" y="307"/>
      <point x="130" y="382" type="curve" smooth="yes"/>
    </contour>
  </outline>
</glyph>
<glyph name="m" format="1">
  <advance width="1858"/>
  <unicode hex="006D"/>
  <outline>
    <contour>
      <point x="987" y="256" type="line"/>
      <point x="1084" y="413"/>
      <point x="1340" y="890"/>
      <point x="1568" y="890" type="curve" smooth="yes"/>
      <point x="1676" y="890"/>
      <point x="1712" y="809"/>
      <point x="1712" y="734" type="curve" smooth="yes"/>
      <point x="1712" y="552"/>
      <point x="1553" y="311"/>
      <point x="1553" y="157" type="curve" smooth="yes"/>
      <point x="1553" y="128"/>
      <point x="1560" y="92"/>
      <point x="1596" y="92" type="curve" smooth="yes"/>
      <point x="1664" y="92"/>
      <point x="1714" y="175"/>
      <point x="1791" y="284" type="curve"/>
      <point x="1801" y="304" type="line"/>
      <point x="1831" y="279"/>
      <point x="1849" y="263"/>
      <point x="1858" y="255" type="curve"/>
      <point x="1836" y="225" type="line"/>
      <point x="1729" y="70"/>
      <point x="1650" y="-22"/>
      <point x="1525" y="-22" type="curve" smooth="yes"/>
      <point x="1436" y="-22"/>
      <point x="1386" y="45"/>
      <point x="1386" y="137" type="curve" smooth="yes"/>
      <point x="1386" y="342"/>
      <point x="1548" y="606"/>
      <point x="1548" y="703" type="curve" smooth="yes"/>
      <point x="1548" y="727"/>
      <point x="1535" y="758"/>
      <point x="1499" y="758" type="curve" smooth="yes"/>
      <point x="1359" y="758"/>
      <point x="1057" y="228"/>
      <point x="975" y="82" type="curve"/>
      <point x="948" y="26"/>
      <point x="922" y="-19"/>
      <point x="869" y="-19" type="curve" smooth="yes"/>
      <point x="831" y="-19"/>
      <point x="791" y="7"/>
      <point x="791" y="84" type="curve" smooth="yes"/>
      <point x="791" y="244"/>
      <point x="952" y="642"/>
      <point x="952" y="704" type="curve" smooth="yes"/>
      <point x="952" y="728"/>
      <point x="939" y="759"/>
      <point x="903" y="759" type="curve" smooth="yes"/>
      <point x="752" y="759"/>
      <point x="449" y="205"/>
      <point x="351" y="52" type="curve" smooth="yes"/>
      <point x="331" y="22"/>
      <point x="295" y="-19"/>
      <point x="261" y="-19" type="curve" smooth="yes"/>
      <point x="211" y="-19"/>
      <point x="173" y="15"/>
      <point x="173" y="83" type="curve" smooth="yes"/>
      <point x="173" y="115"/>
      <point x="181" y="146"/>
      <point x="192" y="179" type="curve" smooth="yes"/>
      <point x="249" y="354"/>
      <point x="334" y="607"/>
      <point x="334" y="713" type="curve" smooth="yes"/>
      <point x="334" y="732"/>
      <point x="327" y="767"/>
      <point x="292" y="767" type="curve" smooth="yes"/>
      <point x="220" y="767"/>
      <point x="151" y="648"/>
      <point x="75" y="531" type="curve"/>
      <point x="18" y="581" type="line"/>
      <point x="45" y="622" type="line" smooth="yes"/>
      <point x="120" y="736"/>
      <point x="221" y="871"/>
      <point x="371" y="871" type="curve" smooth="yes"/>
      <point x="442" y="871"/>
      <point x="485" y="828"/>
      <point x="485" y="742" type="curve" smooth="yes"/>
      <point x="484" y="611"/>
      <point x="384" y="331"/>
      <point x="364" y="286" type="curve" smooth="yes"/>
      <point x="355" y="266" type="line"/>
      <point x="374" y="255" type="line"/>
      <point x="474" y="411"/>
      <point x="743" y="891"/>
      <point x="957" y="891" type="curve" smooth="yes"/>
      <point x="1072" y="891"/>
      <point x="1110" y="828"/>
      <point x="1110" y="721" type="curve" smooth="yes"/>
      <point x="1110" y="595"/>
      <point x="1036" y="416"/>
      <point x="969" y="264" type="curve"/>
    </contour>
  </outline>
</glyph>
<glyph name="n" format="1">
  <advance width="1262"/>
  <unicode hex="006E"/>
  <outline>
    <contour>
      <point x="762" y="871" type="move" name="top"/>
    </contour>
    <contour>
      <point x="364" y="256" type="line"/>
      <point x="484" y="507"/>
      <point x="708" y="891"/>
      <point x="943" y="891" type="curve"/>
      <point x="1070" y="887"/>
      <point x="1114" y="809"/>
      <point x="1114" y="734" type="curve" smooth="yes"/>
      <point x="1114" y="552"/>
      <point x="956" y="311"/>
      <point x="956" y="157" type="curve" smooth="yes"/>
      <point x="956" y="128"/>
      <point x="963" y="95"/>
      <point x="997" y="95" type="curve" smooth="yes"/>
      <point x="1062" y="95"/>
      <point x="1116" y="178"/>
      <point x="1191" y="287" type="curve" smooth="yes"/>
      <point x="1206" y="309" type="line"/>
      <point x="1237" y="283"/>
      <point x="1253" y="268"/>
      <point x="1262" y="259" type="curve"/>
      <point x="1240" y="229" type="line" smooth="yes"/>
      <point x="1131" y="74"/>
      <point x="1053" y="-19"/>
      <point x="926" y="-19" type="curve" smooth="yes"/>
      <point x="839" y="-19"/>
      <point x="790" y="48"/>
      <point x="790" y="141" type="curve" smooth="yes"/>
      <point x="790" y="346"/>
      <point x="939" y="610"/>
      <point x="939" y="707" type="curve" smooth="yes"/>
      <point x="939" y="731"/>
      <point x="926" y="762"/>
      <point x="890" y="762" type="curve" smooth="yes"/>
      <point x="714" y="762"/>
      <point x="419" y="177"/>
      <point x="333" y="44" type="curve" smooth="yes"/>
      <point x="314" y="14"/>
      <point x="281" y="-19"/>
      <point x="250" y="-19" type="curve" smooth="yes"/>
      <point x="200" y="-19"/>
      <point x="173" y="23"/>
      <point x="173" y="84" type="curve" smooth="yes"/>
      <point x="173" y="117"/>
      <point x="181" y="150"/>
      <point x="192" y="183" type="curve" smooth="yes"/>
      <point x="249" y="358"/>
      <point x="333" y="598"/>
      <point x="333" y="711" type="curve" smooth="yes"/>
      <point x="333" y="730"/>
      <point x="328" y="767"/>
      <point x="292" y="767" type="curve" smooth="yes"/>
      <point x="220" y="767"/>
      <point x="151" y="648"/>
      <point x="75" y="531" type="curve"/>
      <point x="18" y="581" type="line"/>
      <point x="45" y="622" type="line" smooth="yes"/>
      <point x="118" y="734"/>
      <point x="228" y="872"/>
      <point x="363" y="872" type="curve" smooth="yes"/>
      <point x="433" y="872"/>
      <point x="486" y="831"/>
      <point x="486" y="745" type="curve" smooth="yes"/>
      <point x="486" y="610"/>
      <point x="393" y="353"/>
      <point x="352" y="264" type="curve"/>
    </contour>
  </outline>
</glyph>
<glyph name="q" format="1">
  <advance width="1013"/>
  <unicode hex="0071"/>
  <outline>
    <contour>
      <point x="219" y="340" type="curve"/>
      <point x="218" y="340" type="line"/>
      <point x="218" y="156"/>
      <point x="301" y="71"/>
      <point x="405" y="71" type="curve" smooth="yes"/>
      <point x="549" y="71"/>
      <point x="728" y="270"/>
      <point x="728" y="578" type="curve" smooth="yes"/>
      <point x="728" y="687"/>
      <point x="698" y="822"/>
      <point x="554" y="822" type="curve" smooth="yes"/>
      <point x="349" y="822"/>
      <point x="219" y="540"/>
    </contour>
    <contour>
      <point x="693" y="-251" type="curve"/>
      <point x="694" y="-251" type="line"/>
      <point x="694" y="-365"/>
      <point x="857" y="-283"/>
      <point x="857" y="-346" type="curve" smooth="yes"/>
      <point x="857" y="-373"/>
      <point x="844" y="-392"/>
      <point x="820" y="-392" type="curve" smooth="yes"/>
      <point x="567" y="-392" type="line" smooth="yes"/>
      <point x="531" y="-392"/>
      <point x="515" y="-391"/>
      <point x="515" y="-361" type="curve" smooth="yes"/>
      <point x="515" y="-342"/>
      <point x="518" y="-314"/>
      <point x="528" y="-278" type="curve" smooth="yes"/>
      <point x="644" y="153" type="line"/>
      <point x="597" y="97" type="line" smooth="yes"/>
      <point x="542" y="31"/>
      <point x="454" y="-19"/>
      <point x="368" y="-19" type="curve" smooth="yes"/>
      <point x="177" y="-19"/>
      <point x="56" y="137"/>
      <point x="56" y="345" type="curve" smooth="yes"/>
      <point x="56" y="650"/>
      <point x="301" y="891"/>
      <point x="531" y="891" type="curve" smooth="yes"/>
      <point x="630" y="891"/>
      <point x="785" y="840"/>
      <point x="776" y="635" type="curve"/>
      <point x="838" y="820" type="line" smooth="yes"/>
      <point x="847" y="847"/>
      <point x="863" y="865"/>
      <point x="903" y="865" type="curve" smooth="yes"/>
      <point x="946" y="865"/>
      <point x="974" y="834"/>
      <point x="974" y="798" type="curve" smooth="yes"/>
      <point x="974" y="792"/>
      <point x="973" y="786"/>
      <point x="971" y="779" type="curve" smooth="yes"/>
      <point x="698" y="-215" type="line" smooth="yes"/>
      <point x="694" y="-229"/>
      <point x="693" y="-241"/>
    </contour>
  </outline>
</glyph>
<glyph name="r" format="1">
  <advance width="870"/>
  <unicode hex="0072"/>
  <outline>
    <contour>
      <point x="561" y="871" type="move" name="top"/>
    </contour>
    <contour>
      <point x="481" y="0" type="move" name="bot"/>
    </contour>
    <contour>
      <point x="444" y="744" type="curve" smooth="yes"/>
      <point x="444" y="637"/>
      <point x="384" y="468"/>
      <point x="317" y="266" type="curve"/>
      <point x="336" y="258" type="line"/>
      <point x="428" y="422" type="line"/>
      <point x="512" y="561"/>
      <point x="665" y="892"/>
      <point x="845" y="892" type="curve" smooth="yes"/>
      <point x="891" y="892"/>
      <point x="938" y="850"/>
      <point x="938" y="803" type="curve" smooth="yes"/>
      <point x="938" y="717"/>
      <point x="793" y="692"/>
      <point x="718" y="654" type="curve" smooth="yes"/>
      <point x="602" y="595"/>
      <point x="403" y="255"/>
      <point x="333" y="106" type="curve" smooth="yes"/>
      <point x="292" y="31"/>
      <point x="254" y="-13"/>
      <point x="197" y="-13" type="curve" smooth="yes"/>
      <point x="163" y="-13"/>
      <point x="137" y="14"/>
      <point x="137" y="82" type="curve" smooth="yes"/>
      <point x="137" y="139"/>
      <point x="172" y="222"/>
      <point x="190" y="277" type="curve" smooth="yes"/>
      <point x="281" y="551"/>
      <point x="298" y="670"/>
      <point x="298" y="719" type="curve" smooth="yes"/>
      <point x="298" y="729"/>
      <point x="294" y="767"/>
      <point x="256" y="767" type="curve" smooth="yes"/>
      <point x="184" y="767"/>
      <point x="109" y="640"/>
      <point x="69" y="577" type="curve"/>
      <point x="15" y="628" type="line"/>
      <point x="94" y="743"/>
      <point x="198" y="872"/>
      <point x="334" y="872" type="curve" smooth="yes"/>
      <point x="412" y="872"/>
      <point x="444" y="814"/>
    </contour>
  </outline>
</glyph>
<glyph name="v" format="1">
  <advance width="1057"/>
  <unicode hex="0076"/>
  <outline>
    <contour>
      <point x="824" y="891" type="curve" smooth="yes"/>
      <point x="960" y="891"/>
      <point x="986" y="599"/>
      <point x="986" y="560" type="curve" smooth="yes"/>
      <point x="986" y="273"/>
      <point x="809" y="-23"/>
      <point x="527" y="-23" type="curve" smooth="yes"/>
      <point x="384" y="-23"/>
      <point x="202" y="96"/>
      <point x="202" y="271" type="curve" smooth="yes"/>
      <point x="202" y="419"/>
      <point x="319" y="512"/>
      <point x="432" y="745" type="curve" smooth="yes"/>
      <point x="436" y="752"/>
      <point x="438" y="757"/>
      <point x="438" y="761" type="curve" smooth="yes"/>
      <point x="438" y="767"/>
      <point x="434" y="770"/>
      <point x="425" y="770" type="curve" smooth="yes"/>
      <point x="185" y="770" type="line" smooth="yes"/>
      <point x="170" y="770"/>
      <point x="147" y="757"/>
      <point x="147" y="736" type="curve" smooth="yes"/>
      <point x="147" y="695"/>
      <point x="175" y="670"/>
      <point x="175" y="647" type="curve" smooth="yes"/>
      <point x="175" y="619"/>
      <point x="161" y="599"/>
      <point x="133" y="599" type="curve" smooth="yes"/>
      <point x="83" y="599"/>
      <point x="44" y="656"/>
      <point x="44" y="705" type="curve" smooth="yes"/>
      <point x="44" y="797"/>
      <point x="130" y="872"/>
      <point x="221" y="872" type="curve" smooth="yes"/>
      <point x="506" y="872" type="line" smooth="yes"/>
      <point x="538" y="872"/>
      <point x="548" y="859"/>
      <point x="548" y="841" type="curve" smooth="yes"/>
      <point x="548" y="801"/>
      <point x="513" y="728"/>
      <point x="502" y="696" type="curve"/>
      <point x="462" y="589"/>
      <point x="359" y="471"/>
      <point x="359" y="334" type="curve" smooth="yes"/>
      <point x="359" y="182"/>
      <point x="459" y="116"/>
      <point x="573" y="116" type="curve" smooth="yes"/>
      <point x="745" y="116"/>
      <point x="876" y="260"/>
      <point x="876" y="436" type="curve" smooth="yes"/>
      <point x="876" y="596"/>
      <point x="740" y="692"/>
      <point x="740" y="814" type="curve" smooth="yes"/>
      <point x="740" y="860"/>
      <point x="771" y="891"/>
    </contour>
  </outline>
</glyph>
<glyph name="y" format="1">
  <advance width="1023"/>
  <unicode hex="0079"/>
  <outline>
    <contour>
      <point x="533" y="871" type="move" name="top"/>
    </contour>
    <contour>
      <point x="940" y="644" type="curve"/>
      <point x="942" y="646" type="line"/>
      <point x="942" y="265"/>
      <point x="456" y="-398"/>
      <point x="96" y="-397" type="curve" smooth="yes"/>
      <point x="18" y="-397"/>
      <point x="-102" y="-356"/>
      <point x="-102" y="-264" type="curve" smooth="yes"/>
      <point x="-102" y="-217"/>
      <point x="-46" y="-197"/>
      <point x="11" y="-197" type="curve" smooth="yes"/>
      <point x="68" y="-197"/>
      <point x="130" y="-232"/>
      <point x="193" y="-232" type="curve" smooth="yes"/>
      <point x="270" y="-232"/>
      <point x="310" y="-200"/>
      <point x="478" y="-23" type="curve" smooth="yes"/>
      <point x="478" y="-23"/>
      <point x="375" y="315"/>
      <point x="320" y="505" type="curve" smooth="yes"/>
      <point x="273" y="666"/>
      <point x="234" y="760"/>
      <point x="196" y="760" type="curve" smooth="yes"/>
      <point x="124" y="760"/>
      <point x="54" y="615"/>
      <point x="25" y="574" type="curve"/>
      <point x="-27" y="618" type="line"/>
      <point x="58" y="761"/>
      <point x="136" y="891"/>
      <point x="257" y="891" type="curve" smooth="yes"/>
      <point x="324" y="891"/>
      <point x="368" y="824"/>
      <point x="391" y="751" type="curve" smooth="yes"/>
      <point x="455" y="541"/>
      <point x="532" y="275"/>
      <point x="588" y="92" type="curve"/>
      <point x="628" y="149"/>
      <point x="794" y="405"/>
      <point x="794" y="502" type="curve" smooth="yes"/>
      <point x="794" y="627"/>
      <point x="711" y="715"/>
      <point x="711" y="818" type="curve" smooth="yes"/>
      <point x="711" y="864"/>
      <point x="732" y="891"/>
      <point x="785" y="891" type="curve" smooth="yes"/>
      <point x="905" y="891"/>
      <point x="940" y="722"/>
    </contour>
  </outline>
</glyph>
<glyph name="currency" format="1">
  <advance width="1147"/>
  <unicode hex="00A4"/>
  <outline>
    <contour>
      <point x="663" y="1092" type="curve" smooth="yes"/>
      <point x="749" y="1092"/>
      <point x="812" y="1064"/>
      <point x="875" y="1022" type="curve"/>
      <point x="885" y="1032" type="line"/>
      <point x="886" y="1032" type="line"/>
      <point x="939" y="1084"/>
      <point x="986" y="1139"/>
      <point x="1043" y="1174" type="curve"/>
      <point x="1064" y="1156"/>
      <point x="1089" y="1137"/>
      <point x="1089" y="1112" type="curve" smooth="yes"/>
      <point x="1089" y="1040"/>
      <point x="984" y="1012"/>
      <point x="930" y="963" type="curve"/>
      <point x="959" y="913"/>
      <point x="978" y="858"/>
      <point x="978" y="795" type="curve" smooth="yes"/>
      <point x="978" y="673"/>
      <point x="920" y="561"/>
      <point x="831" y="472" type="curve"/>
      <point x="863" y="422"/>
      <point x="933" y="374"/>
      <point x="933" y="323" type="curve" smooth="yes"/>
      <point x="933" y="285"/>
      <point x="883" y="259"/>
      <point x="850" y="259" type="curve" smooth="yes"/>
      <point x="798" y="259"/>
      <point x="774" y="362"/>
      <point x="748" y="408" type="curve"/>
      <point x="669" y="366"/>
      <point x="587" y="336"/>
      <point x="502" y="336" type="curve" smooth="yes"/>
      <point x="417" y="336"/>
      <point x="349" y="365"/>
      <point x="289" y="405" type="curve"/>
      <point x="234" y="350"/>
      <point x="190" y="254"/>
      <point x="120" y="254" type="curve" smooth="yes"/>
      <point x="92" y="254"/>
      <point x="74" y="290"/>
      <point x="74" y="314" type="curve" smooth="yes"/>
      <point x="74" y="386"/>
      <point x="180" y="414"/>
      <point x="235" y="463" type="curve"/>
      <point x="205" y="514"/>
      <point x="186" y="568"/>
      <point x="186" y="630" type="curve" smooth="yes"/>
      <point x="186" y="750"/>
      <point x="246" y="866"/>
      <point x="336" y="956" type="curve"/>
      <point x="304" y="1006"/>
      <point x="233" y="1054"/>
      <point x="233" y="1106" type="curve" smooth="yes"/>
      <point x="233" y="1141"/>
      <point x="283" y="1170"/>
      <point x="316" y="1170" type="curve" smooth="yes"/>
      <point x="369" y="1170"/>
      <point x="390" y="1066"/>
      <point x="420" y="1019" type="curve"/>
      <point x="494" y="1061"/>
      <point x="581" y="1092"/>
    </contour>
    <contour>
      <point x="638" y="1000" type="curve" smooth="yes"/>
      <point x="467" y="1000"/>
      <point x="295" y="851"/>
      <point x="295" y="654" type="curve" smooth="yes"/>
      <point x="295" y="524"/>
      <point x="382" y="428"/>
      <point x="524" y="428" type="curve" smooth="yes"/>
      <point x="701" y="428"/>
      <point x="866" y="588"/>
      <point x="866" y="771" type="curve" smooth="yes"/>
      <point x="866" y="900"/>
      <point x="780" y="1000"/>
    </contour>
  </outline>
</glyph>
<glyph name="brokenbar" format="1">
  <advance width="457"/>
  <unicode hex="00A6"/>
  <outline>
    <contour>
      <point x="342" y="1335" type="line"/>
      <point x="343" y="1332" type="line"/>
      <point x="360" y="1350"/>
      <point x="384" y="1357"/>
      <point x="405" y="1359" type="curve"/>
      <point x="409" y="1335"/>
      <point x="412" y="1317"/>
      <point x="412" y="1296" type="curve" smooth="yes"/>
      <point x="412" y="1281"/>
      <point x="410" y="1266"/>
      <point x="406" y="1249" type="curve" smooth="yes"/>
      <point x="299" y="747" type="line"/>
      <point x="278" y="732"/>
      <point x="261" y="726"/>
      <point x="240" y="724" type="curve"/>
      <point x="239" y="737"/>
      <point x="239" y="746"/>
      <point x="239" y="758" type="curve" smooth="yes"/>
      <point x="239" y="834"/>
      <point x="257" y="925"/>
      <point x="274" y="1006" type="curve" smooth="yes"/>
    </contour>
    <contour>
      <point x="26" y="-189" type="curve" smooth="yes"/>
      <point x="26" y="11"/>
      <point x="98" y="207"/>
      <point x="147" y="399" type="curve" smooth="yes"/>
      <point x="153" y="421"/>
      <point x="187" y="423"/>
      <point x="209" y="425" type="curve"/>
      <point x="212" y="409"/>
      <point x="214" y="392"/>
      <point x="214" y="373" type="curve" smooth="yes"/>
      <point x="214" y="261"/>
      <point x="166" y="96"/>
      <point x="144" y="-14" type="curve" smooth="yes"/>
      <point x="131" y="-76"/>
      <point x="137" y="-212"/>
      <point x="74" y="-212" type="curve" smooth="yes"/>
      <point x="51" y="-212"/>
      <point x="26" y="-213"/>
    </contour>
  </outline>
</glyph>
<glyph name="copyright" format="1">
  <advance width="1554"/>
  <unicode hex="00A9"/>
  <outline>
    <contour>
      <point x="1167" y="1076" type="line"/>
      <point x="1145" y="817" type="line"/>
      <point x="1086" y="816" type="line"/>
      <point x="1060" y="942"/>
      <point x="993" y="1024"/>
      <point x="853" y="1024" type="curve" smooth="yes"/>
      <point x="663" y="1024"/>
      <point x="490" y="748"/>
      <point x="490" y="538" type="curve" smooth="yes"/>
      <point x="490" y="410"/>
      <point x="555" y="306"/>
      <point x="722" y="306" type="curve" smooth="yes"/>
      <point x="839" y="306"/>
      <point x="926" y="349"/>
      <point x="1026" y="415" type="curve"/>
      <point x="1056" y="371" type="line"/>
      <point x="962" y="265"/>
      <point x="804" y="203"/>
      <point x="671" y="203" type="curve" smooth="yes"/>
      <point x="408" y="203"/>
      <point x="302" y="347"/>
      <point x="302" y="520" type="curve" smooth="yes"/>
      <point x="302" y="775"/>
      <point x="535" y="1092"/>
      <point x="832" y="1092" type="curve" smooth="yes"/>
      <point x="1016" y="1092"/>
      <point x="1079" y="983"/>
      <point x="1079" y="983" type="curve"/>
      <point x="1079" y="983"/>
      <point x="1093" y="1076"/>
      <point x="1100" y="1076" type="curve" smooth="yes"/>
    </contour>
    <contour>
      <point x="642" y="73" type="curve" smooth="yes"/>
      <point x="978" y="73"/>
      <point x="1319" y="368"/>
      <point x="1319" y="762" type="curve" smooth="yes"/>
      <point x="1319" y="1025"/>
      <point x="1153" y="1219"/>
      <point x="875" y="1219" type="curve" smooth="yes"/>
      <point x="494" y="1219"/>
      <point x="179" y="881"/>
      <point x="179" y="519" type="curve" smooth="yes"/>
      <point x="179" y="261"/>
      <point x="355" y="73"/>
    </contour>
    <contour>
      <point x="1436" y="781" type="curve" smooth="yes"/>
      <point x="1436" y="311"/>
      <point x="1011" y="-18"/>
      <point x="613" y="-18" type="curve" smooth="yes"/>
      <point x="304" y="-18"/>
      <point x="61" y="196"/>
      <point x="61" y="505" type="curve" smooth="yes"/>
      <point x="61" y="950"/>
      <point x="495" y="1301"/>
      <point x="885" y="1301" type="curve" smooth="yes"/>
      <point x="1192" y="1301"/>
      <point x="1436" y="1091"/>
    </contour>
  </outline>
</glyph>
<glyph name="degree" format="1">
  <advance width="675"/>
  <unicode hex="00B0"/>
  <outline>
    <contour>
      <point x="589" y="1042" type="curve"/>
      <point x="588" y="1041" type="line"/>
      <point x="591" y="1055"/>
      <point x="592" y="1068"/>
      <point x="592" y="1081" type="curve" smooth="yes"/>
      <point x="592" y="1174"/>
      <point x="524" y="1250"/>
      <point x="422" y="1250" type="curve" smooth="yes"/>
      <point x="291" y="1250"/>
      <point x="168" y="1132"/>
      <point x="168" y="1007" type="curve" smooth="yes"/>
      <point x="168" y="911"/>
      <point x="240" y="838"/>
      <point x="341" y="838" type="curve" smooth="yes"/>
      <point x="456" y="838"/>
      <point x="565" y="932"/>
    </contour>
    <contour>
      <point x="605" y="1049" type="curve"/>
      <point x="606" y="1049" type="line"/>
      <point x="580" y="926"/>
      <point x="457" y="821"/>
      <point x="331" y="821" type="curve" smooth="yes"/>
      <point x="222" y="821"/>
      <point x="147" y="895"/>
      <point x="147" y="996" type="curve" smooth="yes"/>
      <point x="147" y="1140"/>
      <point x="287" y="1271"/>
      <point x="430" y="1271" type="curve" smooth="yes"/>
      <point x="537" y="1271"/>
      <point x="610" y="1196"/>
      <point x="610" y="1097" type="curve" smooth="yes"/>
      <point x="610" y="1081"/>
      <point x="609" y="1065"/>
    </contour>
  </outline>
</glyph>
<glyph name="acute" format="1">
  <advance width="566"/>
  <unicode hex="00B4"/>
  <outline>
    <contour>
      <point x="167" y="872" type="move" name="_top"/>
    </contour>
    <contour>
      <point x="498" y="1337" type="curve" smooth="yes"/>
      <point x="414" y="1244"/>
      <point x="267" y="1071"/>
      <point x="213" y="1012" type="curve" smooth="yes"/>
      <point x="203" y="1001"/>
      <point x="190" y="997"/>
      <point x="187" y="997" type="curve" smooth="yes"/>
      <point x="182" y="997"/>
      <point x="176" y="1001"/>
      <point x="176" y="1011" type="curve" smooth="yes"/>
      <point x="176" y="1015"/>
      <point x="178" y="1024"/>
      <point x="179" y="1028" type="curve" smooth="yes"/>
      <point x="238" y="1139"/>
      <point x="339" y="1324"/>
      <point x="386" y="1411" type="curve" smooth="yes"/>
      <point x="396" y="1430"/>
      <point x="408" y="1436"/>
      <point x="424" y="1436" type="curve" smooth="yes"/>
      <point x="461" y="1436"/>
      <point x="506" y="1390"/>
      <point x="506" y="1358" type="curve" smooth="yes"/>
      <point x="506" y="1349"/>
      <point x="505" y="1344"/>
    </contour>
  </outline>
</glyph>
<glyph name="onesuperior" format="1">
  <advance width="610"/>
  <unicode hex="00B9"/>
  <outline>
    <contour>
      <point x="643" y="1187" type="line" smooth="yes"/>
      <point x="646" y="1200"/>
      <point x="656" y="1233"/>
      <point x="665" y="1278" type="curve" smooth="yes"/>
      <point x="667" y="1287"/>
      <point x="666" y="1291"/>
      <point x="662" y="1291" type="curve"/>
      <point x="334" y="1206" type="line"/>
      <point x="330" y="1201"/>
      <point x="328" y="1197"/>
      <point x="327" y="1193" type="curve" smooth="yes"/>
      <point x="318" y="1151"/>
      <point x="478" y="1181"/>
      <point x="461" y="1103" type="curve" smooth="yes"/>
      <point x="331" y="491" type="line" smooth="yes"/>
      <point x="314" y="411"/>
      <point x="170" y="449"/>
      <point x="161" y="405" type="curve" smooth="yes"/>
      <point x="160" y="404"/>
      <point x="161" y="400"/>
      <point x="161" y="392" type="curve"/>
      <point x="627" y="392" type="line"/>
      <point x="631" y="399"/>
      <point x="633" y="403"/>
      <point x="634" y="407" type="curve" smooth="yes"/>
      <point x="644" y="455"/>
      <point x="475" y="399"/>
      <point x="494" y="487" type="curve" smooth="yes"/>
    </contour>
  </outline>
</glyph>
<glyph name="guillemotright" format="1">
  <advance width="840"/>
  <unicode hex="00BB"/>
  <outline>
    <contour>
      <point x="300" y="504" type="curve" smooth="yes"/>
      <point x="300" y="611"/>
      <point x="192" y="759"/>
      <point x="197" y="865" type="curve" smooth="yes"/>
      <point x="198" y="880"/>
      <point x="224" y="888"/>
      <point x="230" y="880" type="curve" smooth="yes"/>
      <point x="311" y="773"/>
      <point x="431" y="650"/>
      <point x="431" y="510" type="curve" smooth="yes"/>
      <point x="431" y="415"/>
      <point x="162" y="130"/>
      <point x="64" y="130" type="curve" smooth="yes"/>
      <point x="58" y="130"/>
      <point x="56" y="133"/>
      <point x="52" y="137" type="curve"/>
      <point x="51" y="137" type="line"/>
      <point x="105" y="259"/>
      <point x="300" y="370"/>
    </contour>
    <contour>
      <point x="612" y="505" type="curve" smooth="yes"/>
      <point x="612" y="637"/>
      <point x="483" y="785"/>
      <point x="477" y="916" type="curve" smooth="yes"/>
      <point x="477" y="927"/>
      <point x="503" y="938"/>
      <point x="510" y="929" type="curve" smooth="yes"/>
      <point x="608" y="810"/>
      <point x="674" y="648"/>
      <point x="754" y="510" type="curve"/>
      <point x="397" y="144" type="line" smooth="yes"/>
      <point x="373" y="120"/>
      <point x="352" y="80"/>
      <point x="323" y="80" type="curve" smooth="yes"/>
      <point x="316" y="80"/>
      <point x="313" y="83"/>
      <point x="309" y="87" type="curve"/>
      <point x="389" y="234"/>
      <point x="612" y="336"/>
    </contour>
  </outline>
</glyph>
<glyph name="onequarter" format="1">
  <advance width="1894"/>
  <unicode hex="00BC"/>
  <outline>
    <contour>
      <point x="673" y="1295" type="line"/>
      <point x="663" y="1299"/>
      <point x="652" y="1301"/>
      <point x="640" y="1301" type="curve"/>
      <point x="555" y="1264"/>
      <point x="468" y="1244"/>
      <point x="381" y="1234" type="curve"/>
      <point x="371" y="1199" type="line"/>
      <point x="436" y="1169"/>
      <point x="501" y="1197"/>
      <point x="477" y="1084" type="curve" smooth="yes"/>
      <point x="387" y="663" type="line" smooth="yes"/>
      <point x="359" y="527"/>
      <point x="318" y="586"/>
      <point x="231" y="547" type="curve"/>
      <point x="223" y="512" type="line"/>
      <point x="634" y="512" type="line"/>
      <point x="642" y="548" type="line"/>
      <point x="639" y="560"/>
      <point x="606" y="558"/>
      <point x="594" y="559" type="curve" smooth="yes"/>
      <point x="517" y="564"/>
      <point x="529" y="622"/>
      <point x="542" y="685" type="curve" smooth="yes"/>
    </contour>
    <contour>
      <point x="526" y="-77" type="curve"/>
      <point x="569" y="-31"/>
      <point x="620" y="20"/>
      <point x="655" y="71" type="curve" smooth="yes"/>
      <point x="796" y="279"/>
      <point x="932" y="488"/>
      <point x="1083" y="691" type="curve" smooth="yes"/>
      <point x="1227" y="883"/>
      <point x="1380" y="1067"/>
      <point x="1531" y="1254" type="curve" smooth="yes"/>
      <point x="1637" y="1386" type="line"/>
      <point x="1614" y="1403"/>
      <point x="1584" y="1410"/>
      <point x="1552" y="1410" type="curve"/>
      <point x="1432" y="1338"/>
      <point x="1329" y="1157"/>
      <point x="1246" y="1045" type="curve" smooth="yes"/>
      <point x="534" y="91" type="line" smooth="yes"/>
      <point x="497" y="42"/>
      <point x="468" y="-27"/>
      <point x="438" y="-81" type="curve"/>
      <point x="471" y="-81" type="line" smooth="yes"/>
      <point x="489" y="-81"/>
      <point x="507" y="-81"/>
    </contour>
    <contour>
      <point x="1271" y="325" type="line"/>
      <point x="1617" y="716" type="line"/>
      <point x="1534" y="325" type="line"/>
    </contour>
    <contour>
      <point x="1798" y="251" type="line"/>
      <point x="1815" y="288"/>
      <point x="1837" y="329"/>
      <point x="1852" y="367" type="curve"/>
      <point x="1848" y="384"/>
      <point x="1837" y="386"/>
      <point x="1827" y="386" type="curve"/>
      <point x="1783" y="351"/>
      <point x="1796" y="328"/>
      <point x="1686" y="328" type="curve"/>
      <point x="1796" y="846" type="line"/>
      <point x="1749" y="846"/>
      <point x="1701" y="842"/>
      <point x="1655" y="840" type="curve"/>
      <point x="1178" y="319" type="line"/>
      <point x="1169" y="251" type="line"/>
      <point x="1520" y="251" type="line"/>
      <point x="1499" y="155" type="line" smooth="yes"/>
      <point x="1486" y="94"/>
      <point x="1403" y="98"/>
      <point x="1359" y="83" type="curve"/>
      <point x="1351" y="47" type="line"/>
      <point x="1751" y="47" type="line"/>
      <point x="1759" y="84" type="line"/>
      <point x="1723" y="96"/>
      <point x="1637" y="97"/>
      <point x="1649" y="155" type="curve" smooth="yes"/>
      <point x="1670" y="251" type="line"/>
    </contour>
  </outline>
</glyph>
<glyph name="threequarters" format="1">
  <advance width="1931"/>
  <unicode hex="00BE"/>
  <outline>
    <contour>
      <point x="626" y="-77" type="curve"/>
      <point x="669" y="-31"/>
      <point x="720" y="20"/>
      <point x="755" y="71" type="curve" smooth="yes"/>
      <point x="896" y="279"/>
      <point x="1032" y="488"/>
      <point x="1183" y="691" type="curve" smooth="yes"/>
      <point x="1327" y="883"/>
      <point x="1480" y="1067"/>
      <point x="1631" y="1254" type="curve" smooth="yes"/>
      <point x="1737" y="1386" type="line"/>
      <point x="1714" y="1403"/>
      <point x="1684" y="1410"/>
      <point x="1652" y="1410" type="curve"/>
      <point x="1532" y="1338"/>
      <point x="1429" y="1157"/>
      <point x="1346" y="1045" type="curve" smooth="yes"/>
      <point x="634" y="91" type="line" smooth="yes"/>
      <point x="597" y="42"/>
      <point x="568" y="-27"/>
      <point x="538" y="-81" type="curve"/>
      <point x="571" y="-81" type="line" smooth="yes"/>
      <point x="589" y="-81"/>
      <point x="607" y="-81"/>
    </contour>
    <contour>
      <point x="1271" y="325" type="line"/>
      <point x="1617" y="716" type="line"/>
      <point x="1534" y="325" type="line"/>
    </contour>
    <contour>
      <point x="1798" y="251" type="line"/>
      <point x="1815" y="288"/>
      <point x="1837" y="329"/>
      <point x="1852" y="367" type="curve"/>
      <point x="1848" y="384"/>
      <point x="1837" y="386"/>
      <point x="1827" y="386" type="curve"/>
      <point x="1783" y="351"/>
      <point x="1796" y="328"/>
      <point x="1686" y="328" type="curve"/>
      <point x="1796" y="846" type="line"/>
      <point x="1749" y="846"/>
      <point x="1701" y="842"/>
      <point x="1655" y="840" type="curve"/>
      <point x="1178" y="319" type="line"/>
      <point x="1169" y="251" type="line"/>
      <point x="1520" y="251" type="line"/>
      <point x="1499" y="155" type="line" smooth="yes"/>
      <point x="1486" y="94"/>
      <point x="1403" y="98"/>
      <point x="1359" y="83" type="curve"/>
      <point x="1351" y="47" type="line"/>
      <point x="1751" y="47" type="line"/>
      <point x="1759" y="84" type="line"/>
      <point x="1723" y="96"/>
      <point x="1637" y="97"/>
      <point x="1649" y="155" type="curve" smooth="yes"/>
      <point x="1670" y="251" type="line"/>
    </contour>
    <contour>
      <point x="598" y="950" type="curve"/>
      <point x="709" y="961"/>
      <point x="815" y="1038"/>
      <point x="839" y="1151" type="curve" smooth="yes"/>
      <point x="864" y="1268"/>
      <point x="780" y="1327"/>
      <point x="672" y="1327" type="curve" smooth="yes"/>
      <point x="584" y="1327"/>
      <point x="470" y="1287"/>
      <point x="402" y="1213" type="curve"/>
      <point x="400" y="1209"/>
      <point x="398" y="1205"/>
      <point x="397" y="1201" type="curve" smooth="yes"/>
      <point x="395" y="1192"/>
      <point x="396" y="1182"/>
      <point x="406" y="1182" type="curve" smooth="yes"/>
      <point x="482" y="1182"/>
      <point x="553" y="1257"/>
      <point x="639" y="1257" type="curve" smooth="yes"/>
      <point x="712" y="1257"/>
      <point x="736" y="1221"/>
      <point x="721" y="1150" type="curve" smooth="yes"/>
      <point x="700" y="1051"/>
      <point x="512" y="969"/>
      <point x="423" y="930" type="curve" smooth="yes"/>
      <point x="420" y="928"/>
      <point x="416" y="926"/>
      <point x="413" y="925" type="curve"/>
      <point x="439" y="887" type="line"/>
      <point x="464" y="892"/>
      <point x="490" y="896"/>
      <point x="515" y="896" type="curve" smooth="yes"/>
      <point x="647" y="896"/>
      <point x="678" y="788"/>
      <point x="653" y="670" type="curve" smooth="yes"/>
      <point x="627" y="549"/>
      <point x="534" y="447"/>
      <point x="405" y="447" type="curve" smooth="yes"/>
      <point x="376" y="447"/>
      <point x="288" y="465"/>
      <point x="297" y="504" type="curve" smooth="yes"/>
      <point x="301" y="524"/>
      <point x="320" y="543"/>
      <point x="325" y="566" type="curve" smooth="yes"/>
      <point x="332" y="601"/>
      <point x="305" y="633"/>
      <point x="271" y="633" type="curve" smooth="yes"/>
      <point x="229" y="633"/>
      <point x="185" y="596"/>
      <point x="176" y="554" type="curve" smooth="yes"/>
      <point x="151" y="433"/>
      <point x="322" y="405"/>
      <point x="414" y="405" type="curve" smooth="yes"/>
      <point x="573" y="405"/>
      <point x="780" y="490"/>
      <point x="819" y="673" type="curve" smooth="yes"/>
      <point x="854" y="839"/>
      <point x="763" y="950"/>
    </contour>
  </outline>
</glyph>
<glyph name="multiply" format="1">
  <advance width="312"/>
  <unicode hex="00D7"/>
  <outline>
    <contour>
      <point x="76" y="661" type="line"/>
      <point x="74" y="668"/>
      <point x="72" y="678"/>
      <point x="72" y="687" type="curve" smooth="yes"/>
      <point x="72" y="747"/>
      <point x="103" y="799"/>
      <point x="152" y="799" type="curve" smooth="yes"/>
      <point x="224" y="799"/>
      <point x="266" y="769"/>
      <point x="266" y="683" type="curve" smooth="yes"/>
      <point x="266" y="621"/>
      <point x="228" y="557"/>
      <point x="173" y="557" type="curve" smooth="yes"/>
      <point x="125" y="557"/>
      <point x="83" y="613"/>
      <point x="76" y="659" type="curve"/>
    </contour>
  </outline>
</glyph>
<glyph name="eth" format="1">
  <advance width="945"/>
  <unicode hex="00F0"/>
  <outline>
    <contour>
      <point x="616" y="234" type="curve" smooth="yes"/>
      <point x="649" y="307"/>
      <point x="674" y="400"/>
      <point x="674" y="484" type="curve" smooth="yes"/>
      <point x="674" y="589"/>
      <point x="632" y="686"/>
      <point x="513" y="686" type="curve" smooth="yes"/>
      <point x="403" y="686"/>
      <point x="331" y="597"/>
      <point x="300" y="530" type="curve" smooth="yes"/>
      <point x="260" y="445"/>
      <point x="217" y="324"/>
      <point x="217" y="221" type="curve" smooth="yes"/>
      <point x="217" y="124"/>
      <point x="256" y="37"/>
      <point x="370" y="37" type="curve" smooth="yes"/>
      <point x="493" y="37"/>
      <point x="572" y="139"/>
    </contour>
    <contour>
      <point x="508" y="774" type="curve" smooth="yes"/>
      <point x="609" y="774"/>
      <point x="662" y="726"/>
      <point x="712" y="656" type="curve"/>
      <point x="741" y="656" type="line"/>
      <point x="741" y="692" type="line" smooth="yes"/>
      <point x="741" y="812"/>
      <point x="721" y="916"/>
      <point x="676" y="1005" type="curve"/>
      <point x="428" y="894" type="line"/>
      <point x="428" y="896" type="line"/>
      <point x="426" y="895"/>
      <point x="422" y="894"/>
      <point x="420" y="894" type="curve" smooth="yes"/>
      <point x="409" y="894"/>
      <point x="397" y="905"/>
      <point x="390" y="921" type="curve"/>
      <point x="447" y="964"/>
      <point x="507" y="994"/>
      <point x="569" y="1021" type="curve" smooth="yes"/>
      <point x="647" y="1055" type="line"/>
      <point x="632" y="1073" type="line" smooth="yes"/>
      <point x="591" y="1123"/>
      <point x="539" y="1164"/>
      <point x="473" y="1197" type="curve" smooth="yes"/>
      <point x="466" y="1200"/>
      <point x="465" y="1202"/>
      <point x="465" y="1205" type="curve" smooth="yes"/>
      <point x="465" y="1217"/>
      <point x="487" y="1249"/>
      <point x="524" y="1249" type="curve" smooth="yes"/>
      <point x="529" y="1249"/>
      <point x="534" y="1248"/>
      <point x="535" y="1248" type="curve" smooth="yes"/>
      <point x="537" y="1248" type="line"/>
      <point x="625" y="1221"/>
      <point x="669" y="1068"/>
      <point x="751" y="1102" type="curve" smooth="yes"/>
      <point x="926" y="1174" type="line"/>
      <point x="953" y="1173"/>
      <point x="981" y="1162"/>
      <point x="971" y="1148" type="curve" smooth="yes"/>
      <point x="942" y="1110"/>
      <point x="875" y="1092"/>
      <point x="823" y="1070" type="curve" smooth="yes"/>
      <point x="786" y="1054" type="line"/>
      <point x="844" y="955"/>
      <point x="882" y="835"/>
      <point x="882" y="702" type="curve" smooth="yes"/>
      <point x="882" y="412"/>
      <point x="687" y="-18"/>
      <point x="345" y="-18" type="curve" smooth="yes"/>
      <point x="143" y="-18"/>
      <point x="47" y="108"/>
      <point x="47" y="261" type="curve" smooth="yes"/>
      <point x="47" y="490"/>
      <point x="267" y="774"/>
    </contour>
  </outline>
</glyph>
<glyph name="thorn" format="1">
  <advance width="1051"/>
  <unicode hex="00FE"/>
  <outline>
    <contour>
      <point x="517" y="1330" type="curve"/>
      <point x="516" y="1327" type="line"/>
      <point x="543" y="1327"/>
      <point x="548" y="1322"/>
      <point x="548" y="1293" type="curve" smooth="yes"/>
      <point x="548" y="1274"/>
      <point x="543" y="1247"/>
      <point x="535" y="1212" type="curve" smooth="yes"/>
      <point x="460" y="885" type="line"/>
      <point x="488" y="895" type="line" smooth="yes"/>
      <point x="536" y="912"/>
      <point x="586" y="920"/>
      <point x="632" y="920" type="curve" smooth="yes"/>
      <point x="905" y="920"/>
      <point x="1019" y="780"/>
      <point x="1019" y="612" type="curve" smooth="yes"/>
      <point x="1019" y="348"/>
      <point x="729" y="3"/>
      <point x="268" y="3" type="curve" smooth="yes"/>
      <point x="256" y="3" type="line"/>
      <point x="196" y="-216" type="line" smooth="yes"/>
      <point x="192" y="-229"/>
      <point x="191" y="-241"/>
      <point x="191" y="-250" type="curve" smooth="yes"/>
      <point x="191" y="-368"/>
      <point x="349" y="-283"/>
      <point x="349" y="-347" type="curve" smooth="yes"/>
      <point x="349" y="-375"/>
      <point x="336" y="-394"/>
      <point x="314" y="-394" type="curve" smooth="yes"/>
      <point x="-155" y="-394" type="line" smooth="yes"/>
      <point x="-170" y="-394"/>
      <point x="-171" y="-391"/>
      <point x="-171" y="-385" type="curve" smooth="yes"/>
      <point x="-171" y="-262"/>
      <point x="-1" y="-403"/>
      <point x="43" y="-214" type="curve" smooth="yes"/>
      <point x="378" y="1212" type="line"/>
      <point x="205" y="1212" type="line" smooth="yes"/>
      <point x="180" y="1212"/>
      <point x="178" y="1218"/>
      <point x="178" y="1224" type="curve" smooth="yes"/>
      <point x="178" y="1242"/>
      <point x="195" y="1292"/>
      <point x="204" y="1293" type="curve" smooth="yes"/>
      <point x="498" y="1329" type="line" smooth="yes"/>
      <point x="505" y="1330"/>
      <point x="510" y="1330"/>
    </contour>
    <contour>
      <point x="292" y="95" type="line"/>
      <point x="292" y="94" type="line"/>
      <point x="604" y="94"/>
      <point x="833" y="385"/>
      <point x="833" y="591" type="curve" smooth="yes"/>
      <point x="833" y="701"/>
      <point x="762" y="787"/>
      <point x="615" y="787" type="curve" smooth="yes"/>
      <point x="562" y="787"/>
      <point x="461" y="821"/>
      <point x="446" y="764" type="curve" smooth="yes"/>
      <point x="271" y="95" type="line"/>
    </contour>
  </outline>
</glyph>
<glyph name="ij" format="1">
  <advance width="1540"/>
  <unicode hex="0133"/>
  <outline>
    <contour>
      <point x="613" y="249" type="line"/>
      <point x="555" y="160" type="line" smooth="yes"/>
      <point x="497" y="71"/>
      <point x="415" y="-20"/>
      <point x="301" y="-20" type="curve" smooth="yes"/>
      <point x="205" y="-20"/>
      <point x="145" y="64"/>
      <point x="145" y="162" type="curve" smooth="yes"/>
      <point x="145" y="229"/>
      <point x="167" y="299"/>
      <point x="192" y="369" type="curve" smooth="yes"/>
      <point x="292" y="653" type="line"/>
      <point x="299" y="679"/>
      <point x="311" y="708"/>
      <point x="311" y="737" type="curve" smooth="yes"/>
      <point x="311" y="775"/>
      <point x="293" y="805"/>
      <point x="256" y="805" type="curve" smooth="yes"/>
      <point x="220" y="805"/>
      <point x="176" y="762"/>
      <point x="61" y="604" type="curve"/>
      <point x="9" y="643" type="line"/>
      <point x="111" y="781"/>
      <point x="195" y="892"/>
      <point x="311" y="892" type="curve" smooth="yes"/>
      <point x="419" y="892"/>
      <point x="452" y="817"/>
      <point x="452" y="722" type="curve" smooth="yes"/>
      <point x="452" y="673"/>
      <point x="443" y="621"/>
      <point x="429" y="576" type="curve" smooth="yes"/>
      <point x="327" y="253" type="line" smooth="yes"/>
      <point x="321" y="235"/>
      <point x="312" y="200"/>
      <point x="312" y="167" type="curve" smooth="yes"/>
      <point x="312" y="138"/>
      <point x="317" y="90"/>
      <point x="364" y="90" type="curve" smooth="yes"/>
      <point x="405" y="90"/>
      <point x="444" y="131"/>
      <point x="494" y="208" type="curve" smooth="yes"/>
      <point x="550" y="294" type="line"/>
    </contour>
    <contour>
      <point x="358" y="1216" type="curve"/>
      <point x="359" y="1216" type="line"/>
      <point x="359" y="1281"/>
      <point x="398" y="1311"/>
      <point x="447" y="1311" type="curve" smooth="yes"/>
      <point x="501" y="1311"/>
      <point x="555" y="1273"/>
      <point x="563" y="1196" type="curve"/>
      <point x="563" y="1187" type="line" smooth="yes"/>
      <point x="563" y="1117"/>
      <point x="527" y="1090"/>
      <point x="480" y="1090" type="curve" smooth="yes"/>
      <point x="426" y="1090"/>
      <point x="358" y="1135"/>
    </contour>
    <contour>
      <point x="1350" y="1220" type="curve" smooth="yes"/>
      <point x="1350" y="1281"/>
      <point x="1393" y="1311"/>
      <point x="1442" y="1311" type="curve" smooth="yes"/>
      <point x="1498" y="1311"/>
      <point x="1563" y="1268"/>
      <point x="1563" y="1182" type="curve" smooth="yes"/>
      <point x="1563" y="1116"/>
      <point x="1523" y="1090"/>
      <point x="1477" y="1090" type="curve" smooth="yes"/>
      <point x="1419" y="1090"/>
      <point x="1350" y="1137"/>
    </contour>
    <contour>
      <point x="1305" y="892" type="curve"/>
      <point x="1305" y="891" type="line"/>
      <point x="1418" y="891"/>
      <point x="1461" y="827"/>
      <point x="1461" y="728" type="curve" smooth="yes"/>
      <point x="1461" y="685"/>
      <point x="1453" y="634"/>
      <point x="1438" y="576" type="curve" smooth="yes"/>
      <point x="1357" y="257" type="line" smooth="yes"/>
      <point x="1288" y="-13"/>
      <point x="1220" y="-340"/>
      <point x="909" y="-340" type="curve" smooth="yes"/>
      <point x="831" y="-340"/>
      <point x="703" y="-305"/>
      <point x="703" y="-209" type="curve" smooth="yes"/>
      <point x="703" y="-169"/>
      <point x="726" y="-149"/>
      <point x="764" y="-149" type="curve" smooth="yes"/>
      <point x="848" y="-149"/>
      <point x="889" y="-248"/>
      <point x="983" y="-248" type="curve" smooth="yes"/>
      <point x="1085" y="-248"/>
      <point x="1104" y="-109"/>
      <point x="1119" y="-34" type="curve" smooth="yes"/>
      <point x="1145" y="92"/>
      <point x="1179" y="218"/>
      <point x="1212" y="343" type="curve" smooth="yes"/>
      <point x="1283" y="611" type="line" smooth="yes"/>
      <point x="1291" y="642"/>
      <point x="1301" y="680"/>
      <point x="1301" y="714" type="curve" smooth="yes"/>
      <point x="1301" y="751"/>
      <point x="1287" y="787"/>
      <point x="1246" y="787" type="curve" smooth="yes"/>
      <point x="1209" y="787"/>
      <point x="1167" y="755"/>
      <point x="1127" y="694" type="curve" smooth="yes"/>
      <point x="1069" y="605" type="line"/>
      <point x="1017" y="644" type="line"/>
      <point x="1117" y="781"/>
      <point x="1191" y="892"/>
    </contour>
  </outline>
</glyph>
<glyph name="kgreenlandic" format="1">
  <advance width="1097"/>
  <unicode hex="0138"/>
  <outline>
    <contour>
      <point x="842" y="690" type="line"/>
      <point x="832" y="795"/>
      <point x="757" y="830"/>
      <point x="663" y="830" type="curve" smooth="yes"/>
      <point x="586" y="830"/>
      <point x="422" y="878"/>
      <point x="398" y="783" type="curve" smooth="yes"/>
      <point x="315" y="455" type="line"/>
      <point x="336" y="455" type="line" smooth="yes"/>
      <point x="515" y="455"/>
      <point x="842" y="481"/>
      <point x="842" y="676" type="curve" smooth="yes"/>
    </contour>
    <contour>
      <point x="653" y="403" type="curve"/>
      <point x="715" y="180"/>
      <point x="746" y="102"/>
      <point x="795" y="102" type="curve" smooth="yes"/>
      <point x="844" y="102"/>
      <point x="899" y="171"/>
      <point x="1014" y="318" type="curve"/>
      <point x="1077" y="266" type="line"/>
      <point x="970" y="118"/>
      <point x="874" y="-20"/>
      <point x="751" y="-20" type="curve" smooth="yes"/>
      <point x="674" y="-20"/>
      <point x="637" y="6"/>
      <point x="592" y="188" type="curve" smooth="yes"/>
      <point x="542" y="389" type="line"/>
      <point x="530" y="389" type="line"/>
      <point x="530" y="389"/>
      <point x="319" y="452"/>
      <point x="302" y="382" type="curve" smooth="yes"/>
      <point x="248" y="156" type="line" smooth="yes"/>
      <point x="222" y="49"/>
      <point x="203" y="-21"/>
      <point x="128" y="-21" type="curve" smooth="yes"/>
      <point x="63" y="-21"/>
      <point x="47" y="13"/>
      <point x="47" y="63" type="curve" smooth="yes"/>
      <point x="47" y="111"/>
      <point x="67" y="171"/>
      <point x="78" y="213" type="curve" smooth="yes"/>
      <point x="344" y="1213" type="line"/>
      <point x="166" y="1213" type="line" smooth="yes"/>
      <point x="140" y="1213"/>
      <point x="138" y="1219"/>
      <point x="138" y="1225" type="curve" smooth="yes"/>
      <point x="138" y="1243"/>
      <point x="156" y="1293"/>
      <point x="166" y="1294" type="curve" smooth="yes"/>
      <point x="463" y="1330" type="line" smooth="yes"/>
      <point x="470" y="1331"/>
      <point x="475" y="1331"/>
      <point x="482" y="1331" type="curve"/>
      <point x="478" y="1333" type="line"/>
      <point x="505" y="1333"/>
      <point x="510" y="1328"/>
      <point x="510" y="1300" type="curve" smooth="yes"/>
      <point x="510" y="1280"/>
      <point x="506" y="1252"/>
      <point x="497" y="1217" type="curve" smooth="yes"/>
      <point x="404" y="847" type="line"/>
      <point x="432" y="856" type="line" smooth="yes"/>
      <point x="510" y="881"/>
      <point x="637" y="921"/>
      <point x="747" y="921" type="curve" smooth="yes"/>
      <point x="870" y="921"/>
      <point x="994" y="870"/>
      <point x="994" y="687" type="curve" smooth="yes"/>
      <point x="994" y="477"/>
      <point x="666" y="406"/>
    </contour>
  </outline>
</glyph>
<glyph name="OE" format="1">
  <advance width="1811"/>
  <unicode hex="0152"/>
  <outline>
    <contour>
      <point x="611" y="115" type="curve" smooth="yes"/>
      <point x="796" y="115" type="line"/>
      <point x="1017" y="1131" type="line"/>
      <point x="862" y="1131" type="line" smooth="yes"/>
      <point x="436" y="1131"/>
      <point x="263" y="783"/>
      <point x="263" y="506" type="curve" smooth="yes"/>
      <point x="263" y="294"/>
      <point x="374" y="115"/>
    </contour>
    <contour>
      <point x="1733" y="314" type="curve"/>
      <point x="1730" y="311" type="line"/>
      <point x="1652" y="26" type="line"/>
      <point x="574" y="26" type="line" smooth="yes"/>
      <point x="261" y="26"/>
      <point x="82" y="251"/>
      <point x="82" y="558" type="curve" smooth="yes"/>
      <point x="82" y="884"/>
      <point x="317" y="1206"/>
      <point x="857" y="1206" type="curve" smooth="yes"/>
      <point x="1842" y="1206" type="line"/>
      <point x="1829" y="927" type="line" smooth="yes"/>
      <point x="1828" y="921"/>
      <point x="1802" y="895"/>
      <point x="1773" y="895" type="curve" smooth="yes"/>
      <point x="1754" y="895"/>
      <point x="1738" y="903"/>
      <point x="1734" y="921" type="curve" smooth="yes"/>
      <point x="1702" y="1053"/>
      <point x="1684" y="1136"/>
      <point x="1579" y="1136" type="curve" smooth="yes"/>
      <point x="1276" y="1136" type="line" smooth="yes"/>
      <point x="1252" y="1136"/>
      <point x="1219" y="1125"/>
      <point x="1205" y="1062" type="curve" smooth="yes"/>
      <point x="1121" y="688" type="line"/>
      <point x="1406" y="688" type="line" smooth="yes"/>
      <point x="1515" y="688"/>
      <point x="1542" y="804"/>
      <point x="1573" y="804" type="curve" smooth="yes"/>
      <point x="1635" y="804" type="line"/>
      <point x="1550" y="474" type="line"/>
      <point x="1496" y="474" type="line"/>
      <point x="1492" y="512"/>
      <point x="1476" y="627"/>
      <point x="1399" y="627" type="curve" smooth="yes"/>
      <point x="1107" y="627" type="line"/>
      <point x="1007" y="178" type="line" smooth="yes"/>
      <point x="1004" y="166"/>
      <point x="1003" y="155"/>
      <point x="1003" y="147" type="curve" smooth="yes"/>
      <point x="1003" y="104"/>
      <point x="1033" y="97"/>
      <point x="1052" y="97" type="curve" smooth="yes"/>
      <point x="1365" y="97" type="line" smooth="yes"/>
      <point x="1501" y="97"/>
      <point x="1579" y="182"/>
      <point x="1610" y="302" type="curve" smooth="yes"/>
      <point x="1614" y="318"/>
      <point x="1656" y="341"/>
      <point x="1693" y="341" type="curve" smooth="yes"/>
      <point x="1722" y="341"/>
      <point x="1733" y="329"/>
    </contour>
  </outline>
</glyph>
<glyph name="dotlessj" format="1">
  <advance width="639"/>
  <unicode hex="0237"/>
  <outline>
    <contour>
      <point x="420" y="892" type="curve"/>
      <point x="420" y="891" type="line"/>
      <point x="533" y="891"/>
      <point x="576" y="827"/>
      <point x="576" y="728" type="curve" smooth="yes"/>
      <point x="576" y="685"/>
      <point x="568" y="634"/>
      <point x="553" y="576" type="curve" smooth="yes"/>
      <point x="472" y="257" type="line" smooth="yes"/>
      <point x="403" y="-13"/>
      <point x="332" y="-340"/>
      <point x="45" y="-340" type="curve" smooth="yes"/>
      <point x="-36" y="-340"/>
      <point x="-168" y="-305"/>
      <point x="-168" y="-209" type="curve" smooth="yes"/>
      <point x="-168" y="-170"/>
      <point x="-144" y="-149"/>
      <point x="-105" y="-149" type="curve" smooth="yes"/>
      <point x="-18" y="-149"/>
      <point x="24" y="-248"/>
      <point x="116" y="-248" type="curve" smooth="yes"/>
      <point x="209" y="-248"/>
      <point x="226" y="-109"/>
      <point x="240" y="-34" type="curve" smooth="yes"/>
      <point x="264" y="92"/>
      <point x="292" y="219"/>
      <point x="325" y="343" type="curve" smooth="yes"/>
      <point x="396" y="611" type="line" smooth="yes"/>
      <point x="404" y="642"/>
      <point x="415" y="680"/>
      <point x="415" y="714" type="curve" smooth="yes"/>
      <point x="415" y="751"/>
      <point x="401" y="787"/>
      <point x="359" y="787" type="curve" smooth="yes"/>
      <point x="322" y="787"/>
      <point x="284" y="755"/>
      <point x="248" y="694" type="curve" smooth="yes"/>
      <point x="195" y="605" type="line"/>
      <point x="148" y="643" type="line"/>
      <point x="239" y="781"/>
      <point x="306" y="892"/>
    </contour>
  </outline>
</glyph>
<glyph name="dotaccent" format="1">
  <advance width="443"/>
  <unicode hex="02D9"/>
  <outline>
    <contour>
      <point x="206" y="891" type="move" name="_top"/>
    </contour>
    <contour>
      <point x="289" y="1181" type="curve" smooth="yes"/>
      <point x="333" y="1181"/>
      <point x="361" y="1151"/>
      <point x="361" y="1111" type="curve" smooth="yes"/>
      <point x="361" y="1051"/>
      <point x="300" y="997"/>
      <point x="242" y="997" type="curve" smooth="yes"/>
      <point x="200" y="997"/>
      <point x="171" y="1025"/>
      <point x="171" y="1066" type="curve" smooth="yes"/>
      <point x="171" y="1125"/>
      <point x="231" y="1181"/>
    </contour>
  </outline>
</glyph>
<glyph name="tilde" format="1">
  <advance width="864"/>
  <unicode hex="02DC"/>
  <outline>
    <contour>
      <point x="411" y="871" type="move" name="_top"/>
    </contour>
    <contour>
      <point x="265" y="1040" type="line"/>
      <point x="305" y="1160"/>
      <point x="366" y="1206"/>
      <point x="441" y="1206" type="curve" smooth="yes"/>
      <point x="543" y="1206"/>
      <point x="637" y="1096"/>
      <point x="730" y="1096" type="curve" smooth="yes"/>
      <point x="776" y="1096"/>
      <point x="797" y="1131"/>
      <point x="824" y="1184" type="curve"/>
      <point x="847" y="1177" type="line"/>
      <point x="808" y="1053"/>
      <point x="743" y="997"/>
      <point x="666" y="997" type="curve" smooth="yes"/>
      <point x="564" y="997"/>
      <point x="463" y="1113"/>
      <point x="372" y="1113" type="curve" smooth="yes"/>
      <point x="328" y="1113"/>
      <point x="308" y="1079"/>
      <point x="284" y="1035" type="curve"/>
    </contour>
  </outline>
</glyph>
<glyph name="uni030F" format="1">
  <advance width="566"/>
  <unicode hex="030F"/>
  <outline>
    <contour>
      <point x="346" y="872" type="move" name="_top"/>
    </contour>
    <contour>
      <point x="181" y="1337" type="curve" smooth="yes"/>
      <point x="265" y="1244"/>
      <point x="412" y="1071"/>
      <point x="466" y="1012" type="curve" smooth="yes"/>
      <point x="476" y="1001"/>
      <point x="489" y="997"/>
      <point x="492" y="997" type="curve" smooth="yes"/>
      <point x="497" y="997"/>
      <point x="503" y="1001"/>
      <point x="503" y="1011" type="curve" smooth="yes"/>
      <point x="503" y="1015"/>
      <point x="501" y="1024"/>
      <point x="500" y="1028" type="curve" smooth="yes"/>
      <point x="441" y="1139"/>
      <point x="340" y="1324"/>
      <point x="293" y="1411" type="curve" smooth="yes"/>
      <point x="283" y="1430"/>
      <point x="271" y="1436"/>
      <point x="255" y="1436" type="curve" smooth="yes"/>
      <point x="218" y="1436"/>
      <point x="173" y="1390"/>
      <point x="173" y="1358" type="curve" smooth="yes"/>
      <point x="173" y="1349"/>
      <point x="174" y="1344"/>
    </contour>
    <contour>
      <point x="-46" y="1337" type="curve" smooth="yes"/>
      <point x="44" y="1244"/>
      <point x="201" y="1071"/>
      <point x="259" y="1012" type="curve" smooth="yes"/>
      <point x="269" y="1001"/>
      <point x="282" y="997"/>
      <point x="285" y="997" type="curve" smooth="yes"/>
      <point x="290" y="997"/>
      <point x="296" y="1001"/>
      <point x="296" y="1011" type="curve" smooth="yes"/>
      <point x="296" y="1015"/>
      <point x="294" y="1024"/>
      <point x="293" y="1028" type="curve"/>
      <point x="228" y="1139"/>
      <point x="117" y="1324"/>
      <point x="66" y="1411" type="curve" smooth="yes"/>
      <point x="57" y="1430"/>
      <point x="44" y="1436"/>
      <point x="28" y="1436" type="curve" smooth="yes"/>
      <point x="-8" y="1436"/>
      <point x="-54" y="1390"/>
      <point x="-54" y="1358" type="curve" smooth="yes"/>
      <point x="-54" y="1349"/>
      <point x="-53" y="1344"/>
    </contour>
  </outline>
</glyph>
<glyph name="uni0311" format="1">
  <advance width="709"/>
  <unicode hex="0311"/>
  <outline>
    <contour>
      <point x="352" y="891" type="move" name="_top"/>
    </contour>
    <contour>
      <point x="167" y="1004" type="curve"/>
      <point x="141" y="1004" type="line"/>
      <point x="181" y="1140"/>
      <point x="275" y="1216"/>
      <point x="418" y="1216" type="curve" smooth="yes"/>
      <point x="540" y="1216"/>
      <point x="603" y="1155"/>
      <point x="603" y="1052" type="curve" smooth="yes"/>
      <point x="603" y="1037"/>
      <point x="602" y="1020"/>
      <point x="599" y="1004" type="curve"/>
      <point x="570" y="1004" type="line"/>
      <point x="555" y="1092"/>
      <point x="471" y="1120"/>
      <point x="392" y="1120" type="curve" smooth="yes"/>
      <point x="301" y="1120"/>
      <point x="224" y="1085"/>
    </contour>
  </outline>
</glyph>
<glyph name="quoteleft" format="1">
  <advance width="493"/>
  <unicode hex="2018"/>
  <outline>
    <contour>
      <point x="350" y="1211" type="curve"/>
      <point x="418" y="1125" type="line"/>
      <point x="356" y="1084"/>
      <point x="318" y="1065"/>
      <point x="318" y="1002" type="curve" smooth="yes"/>
      <point x="318" y="964"/>
      <point x="366" y="891"/>
      <point x="366" y="854" type="curve" smooth="yes"/>
      <point x="366" y="815"/>
      <point x="326" y="777"/>
      <point x="272" y="777" type="curve" smooth="yes"/>
      <point x="198" y="777"/>
      <point x="144" y="840"/>
      <point x="144" y="931" type="curve" smooth="yes"/>
      <point x="144" y="1043"/>
      <point x="251" y="1151"/>
    </contour>
  </outline>
</glyph>
<glyph name="quotedblright" format="1">
  <advance width="850"/>
  <unicode hex="201D"/>
  <outline>
    <contour>
      <point x="572" y="784" type="curve"/>
      <point x="504" y="870" type="line"/>
      <point x="566" y="911"/>
      <point x="604" y="930"/>
      <point x="604" y="993" type="curve" smooth="yes"/>
      <point x="604" y="1031"/>
      <point x="556" y="1104"/>
      <point x="556" y="1141" type="curve" smooth="yes"/>
      <point x="556" y="1180"/>
      <point x="596" y="1218"/>
      <point x="650" y="1218" type="curve" smooth="yes"/>
      <point x="724" y="1218"/>
      <point x="778" y="1155"/>
      <point x="778" y="1064" type="curve" smooth="yes"/>
      <point x="778" y="952"/>
      <point x="671" y="844"/>
    </contour>
    <contour>
      <point x="210" y="783" type="curve"/>
      <point x="142" y="869" type="line"/>
      <point x="204" y="910"/>
      <point x="242" y="929"/>
      <point x="242" y="992" type="curve" smooth="yes"/>
      <point x="242" y="1030"/>
      <point x="194" y="1103"/>
      <point x="194" y="1140" type="curve" smooth="yes"/>
      <point x="194" y="1179"/>
      <point x="234" y="1217"/>
      <point x="288" y="1217" type="curve" smooth="yes"/>
      <point x="362" y="1217"/>
      <point x="416" y="1154"/>
      <point x="416" y="1063" type="curve" smooth="yes"/>
      <point x="416" y="951"/>
      <point x="309" y="843"/>
    </contour>
  </outline>
</glyph>
<glyph name="quotedblbase" format="1">
  <advance width="864"/>
  <unicode hex="201E"/>
  <outline>
    <contour>
      <point x="489" y="-207" type="curve"/>
      <point x="421" y="-121" type="line"/>
      <point x="483" y="-80"/>
      <point x="521" y="-61"/>
      <point x="521" y="2" type="curve" smooth="yes"/>
      <point x="521" y="40"/>
      <point x="473" y="113"/>
      <point x="473" y="150" type="curve" smooth="yes"/>
      <point x="473" y="189"/>
      <point x="513" y="227"/>
      <point x="567" y="227" type="curve" smooth="yes"/>
      <point x="641" y="227"/>
      <point x="695" y="164"/>
      <point x="695" y="73" type="curve" smooth="yes"/>
      <point x="695" y="-39"/>
      <point x="588" y="-147"/>
    </contour>
    <contour>
      <point x="160" y="-208" type="curve"/>
      <point x="92" y="-122" type="line"/>
      <point x="154" y="-81"/>
      <point x="192" y="-62"/>
      <point x="192" y="1" type="curve" smooth="yes"/>
      <point x="192" y="39"/>
      <point x="144" y="112"/>
      <point x="144" y="149" type="curve" smooth="yes"/>
      <point x="144" y="188"/>
      <point x="184" y="226"/>
      <point x="238" y="226" type="curve" smooth="yes"/>
      <point x="312" y="226"/>
      <point x="366" y="163"/>
      <point x="366" y="72" type="curve" smooth="yes"/>
      <point x="366" y="-40"/>
      <point x="259" y="-148"/>
    </contour>
  </outline>
</glyph>
<glyph name="daggerdbl" format="1">
  <advance width="659"/>
  <unicode hex="2021"/>
  <outline>
    <contour>
      <point x="468" y="470" type="line" smooth="yes"/>
      <point x="525" y="470"/>
      <point x="575" y="464"/>
      <point x="575" y="446" type="curve" smooth="yes"/>
      <point x="575" y="420"/>
      <point x="541" y="410"/>
      <point x="497" y="410" type="curve" smooth="yes"/>
      <point x="478" y="410"/>
      <point x="460" y="412"/>
      <point x="446" y="412" type="curve" smooth="yes"/>
      <point x="341" y="412" type="line"/>
      <point x="236" y="-84" type="line"/>
      <point x="222" y="-157"/>
      <point x="240" y="-296"/>
      <point x="165" y="-296" type="curve" smooth="yes"/>
      <point x="146" y="-296"/>
      <point x="117" y="-294"/>
      <point x="117" y="-275" type="curve" smooth="yes"/>
      <point x="117" y="-44"/>
      <point x="153" y="185"/>
      <point x="205" y="412" type="curve"/>
      <point x="134" y="412" type="line" smooth="yes"/>
      <point x="122" y="412"/>
      <point x="105" y="411"/>
      <point x="89" y="411" type="curve" smooth="yes"/>
      <point x="46" y="411"/>
      <point x="26" y="419"/>
      <point x="26" y="432" type="curve" smooth="yes"/>
      <point x="26" y="472"/>
      <point x="106" y="470"/>
      <point x="152" y="470" type="curve" smooth="yes"/>
      <point x="218" y="470" type="line"/>
      <point x="233" y="531"/>
      <point x="249" y="593"/>
      <point x="265" y="654" type="curve"/>
      <point x="185" y="654" type="line" smooth="yes"/>
      <point x="173" y="654"/>
      <point x="156" y="653"/>
      <point x="140" y="653" type="curve" smooth="yes"/>
      <point x="96" y="653"/>
      <point x="75" y="661"/>
      <point x="75" y="674" type="curve" smooth="yes"/>
      <point x="75" y="714"/>
      <point x="155" y="712"/>
      <point x="201" y="712" type="curve" smooth="yes"/>
      <point x="281" y="712" type="line"/>
      <point x="346" y="950"/>
      <point x="418" y="1187"/>
      <point x="473" y="1423" type="curve" smooth="yes"/>
      <point x="478" y="1446"/>
      <point x="511" y="1447"/>
      <point x="533" y="1450" type="curve"/>
      <point x="533" y="1379"/>
      <point x="531" y="1316"/>
      <point x="517" y="1248" type="curve" smooth="yes"/>
      <point x="404" y="712" type="line"/>
      <point x="517" y="712" type="line" smooth="yes"/>
      <point x="574" y="712"/>
      <point x="624" y="706"/>
      <point x="624" y="688" type="curve" smooth="yes"/>
      <point x="624" y="662"/>
      <point x="591" y="652"/>
      <point x="547" y="652" type="curve" smooth="yes"/>
      <point x="529" y="652"/>
      <point x="511" y="654"/>
      <point x="497" y="654" type="curve" smooth="yes"/>
      <point x="392" y="654" type="line"/>
      <point x="353" y="470" type="line"/>
    </contour>
  </outline>
</glyph>
<glyph name="foursuperior" format="1">
  <advance width="836"/>
  <unicode hex="2074"/>
  <outline>
    <contour>
      <point x="570" y="1149" type="line"/>
      <point x="140" y="721" type="line"/>
      <point x="460" y="721" type="line"/>
    </contour>
    <contour>
      <point x="570" y="654" type="line"/>
      <point x="566" y="636"/>
      <point x="526" y="492"/>
      <point x="492" y="323" type="curve"/>
      <point x="363" y="323" type="line"/>
      <point x="444" y="654" type="line"/>
      <point x="297" y="652" type="line"/>
      <point x="110" y="652" type="line" smooth="yes"/>
      <point x="71" y="652"/>
      <point x="63" y="667"/>
      <point x="63" y="676" type="curve" smooth="yes"/>
      <point x="63" y="683"/>
      <point x="70" y="700"/>
      <point x="89" y="719" type="curve" smooth="yes"/>
      <point x="544" y="1172" type="line" smooth="yes"/>
      <point x="585" y="1213"/>
      <point x="581" y="1216"/>
      <point x="625" y="1216" type="curve" smooth="yes"/>
      <point x="704" y="1216" type="line"/>
      <point x="584" y="721" type="line"/>
      <point x="765" y="721" type="line"/>
      <point x="748" y="654" type="line"/>
    </contour>
  </outline>
</glyph>
<glyph name="minus" format="1">
  <advance width="1046"/>
  <unicode hex="2212"/>
  <outline>
    <contour>
      <point x="148" y="874" type="curve"/>
      <point x="313" y="874" type="line" smooth="yes"/>
      <point x="557" y="874"/>
      <point x="603" y="874"/>
      <point x="847" y="874" type="curve" smooth="yes"/>
      <point x="885" y="874"/>
      <point x="926" y="874"/>
      <point x="960" y="870" type="curve"/>
      <point x="957" y="833"/>
      <point x="952" y="796"/>
      <point x="946" y="759" type="curve"/>
      <point x="194" y="759" type="line" smooth="yes"/>
      <point x="181" y="759"/>
      <point x="165" y="758"/>
      <point x="150" y="758" type="curve" smooth="yes"/>
      <point x="122" y="758"/>
      <point x="98" y="761"/>
      <point x="98" y="778" type="curve" smooth="yes"/>
      <point x="98" y="816"/>
      <point x="109" y="874"/>
    </contour>
  </outline>
</glyph>
<glyph name="fl" format="1">
  <advance width="1212"/>
  <unicode hex="FB02"/>
  <outline>
    <contour>
      <point x="488" y="817" type="line"/>
      <point x="869" y="817" type="line"/>
      <point x="969" y="1168" type="line"/>
      <point x="905" y="1185"/>
      <point x="834" y="1198"/>
      <point x="770" y="1198" type="curve" smooth="yes"/>
      <point x="662" y="1198"/>
      <point x="574" y="1176"/>
      <point x="519" y="938" type="curve" smooth="yes"/>
    </contour>
    <contour>
      <point x="359" y="927" type="line" smooth="yes"/>
      <point x="423" y="1169"/>
      <point x="473" y="1264"/>
      <point x="811" y="1264" type="curve" smooth="yes"/>
      <point x="811" y="1264"/>
      <point x="1142" y="1249"/>
      <point x="1142" y="1183" type="curve" smooth="yes"/>
      <point x="1142" y="1165"/>
      <point x="1102" y="1020"/>
      <point x="895" y="258" type="curve" smooth="yes"/>
      <point x="886" y="225"/>
      <point x="880" y="198"/>
      <point x="880" y="172" type="curve" smooth="yes"/>
      <point x="880" y="132"/>
      <point x="893" y="92"/>
      <point x="932" y="92" type="curve" smooth="yes"/>
      <point x="973" y="92"/>
      <point x="1019" y="132"/>
      <point x="1071" y="210" type="curve" smooth="yes"/>
      <point x="1128" y="296" type="line"/>
      <point x="1193" y="251" type="line"/>
      <point x="1132" y="162" type="line" smooth="yes"/>
      <point x="1071" y="73"/>
      <point x="984" y="-19"/>
      <point x="866" y="-19" type="curve" smooth="yes"/>
      <point x="772" y="-19"/>
      <point x="719" y="63"/>
      <point x="719" y="161" type="curve" smooth="yes"/>
      <point x="719" y="229"/>
      <point x="745" y="297"/>
      <point x="764" y="371" type="curve" smooth="yes"/>
      <point x="856" y="727" type="line"/>
      <point x="483" y="727" type="line"/>
      <point x="390" y="337" type="line" smooth="yes"/>
      <point x="321" y="46"/>
      <point x="286" y="-229"/>
      <point x="64" y="-316" type="curve"/>
      <point x="13" y="-292" type="line"/>
      <point x="54" y="-234"/>
      <point x="122" y="-62"/>
      <point x="203" y="282" type="curve" smooth="yes"/>
      <point x="308" y="727" type="line"/>
      <point x="104" y="727" type="line"/>
      <point x="125" y="817" type="line"/>
      <point x="329" y="817" type="line"/>
    </contour>
  </outline>
</glyph>
<glyph name="tt" format="1">
  <advance width="1160"/>
  <outline>
    <contour>
      <point x="839" y="872" type="line"/>
      <point x="871" y="954"/>
      <point x="956" y="1234"/>
      <point x="1038" y="1234" type="curve" smooth="yes"/>
      <point x="1069" y="1234"/>
      <point x="1082" y="1203"/>
      <point x="1082" y="1194" type="curve"/>
      <point x="1067" y="1152"/>
      <point x="973" y="883"/>
      <point x="968" y="872" type="curve"/>
      <point x="1212" y="872" type="line"/>
      <point x="1191" y="773" type="line"/>
      <point x="953" y="773" type="line"/>
      <point x="820" y="258" type="line" smooth="yes"/>
      <point x="813" y="231"/>
      <point x="801" y="198"/>
      <point x="801" y="167" type="curve" smooth="yes"/>
      <point x="801" y="135"/>
      <point x="808" y="89"/>
      <point x="855" y="89" type="curve" smooth="yes"/>
      <point x="891" y="89"/>
      <point x="932" y="124"/>
      <point x="978" y="203" type="curve" smooth="yes"/>
      <point x="1030" y="293" type="line"/>
      <point x="1095" y="248" type="line"/>
      <point x="1037" y="154" type="line"/>
      <point x="978" y="67"/>
      <point x="898" y="-21"/>
      <point x="785" y="-21" type="curve" smooth="yes"/>
      <point x="667" y="-21"/>
      <point x="634" y="56"/>
      <point x="634" y="153" type="curve"/>
      <point x="635" y="154" type="line"/>
      <point x="635" y="235"/>
      <point x="657" y="322"/>
      <point x="675" y="382" type="curve" smooth="yes"/>
      <point x="791" y="774" type="line"/>
      <point x="435" y="774" type="line"/>
      <point x="302" y="258" type="line" smooth="yes"/>
      <point x="295" y="231"/>
      <point x="283" y="198"/>
      <point x="283" y="167" type="curve" smooth="yes"/>
      <point x="283" y="135"/>
      <point x="290" y="89"/>
      <point x="337" y="89" type="curve" smooth="yes"/>
      <point x="382" y="89"/>
      <point x="432" y="142"/>
      <point x="490" y="263" type="curve"/>
      <point x="549" y="214" type="line"/>
      <point x="484" y="97"/>
      <point x="392" y="-21"/>
      <point x="267" y="-21" type="curve" smooth="yes"/>
      <point x="149" y="-21"/>
      <point x="116" y="56"/>
      <point x="116" y="153" type="curve"/>
      <point x="117" y="154" type="line"/>
      <point x="117" y="235"/>
      <point x="139" y="322"/>
      <point x="157" y="382" type="curve" smooth="yes"/>
      <point x="273" y="774" type="line"/>
      <point x="70" y="774" type="line"/>
      <point x="99" y="872" type="line"/>
      <point x="321" y="872" type="line"/>
      <point x="353" y="954"/>
      <point x="438" y="1234"/>
      <point x="520" y="1234" type="curve" smooth="yes"/>
      <point x="551" y="1234"/>
      <point x="564" y="1203"/>
      <point x="564" y="1194" type="curve"/>
      <point x="549" y="1152"/>
      <point x="455" y="883"/>
      <point x="450" y="872" type="curve"/>
    </contour>
  </outline>
</glyph>
